<svg xmlns="http://www.w3.org/2000/svg" width="410" height="333.808" viewBox="0 0 410 333.808">
  <g id="Group_32" data-name="Group 32" transform="translate(-733.5 -233)">
    <ellipse id="Ellipse_114" data-name="Ellipse 114" cx="74.274" cy="16.724" rx="74.274" ry="16.724" transform="translate(987.565 533.36)" fill="#555"/>
    <ellipse id="Ellipse_115" data-name="Ellipse 115" cx="74.274" cy="16.724" rx="74.274" ry="16.724" transform="translate(994.452 528.442)" fill="none" stroke="#2b2b2b" stroke-miterlimit="10" stroke-width="1"/>
    <circle id="Ellipse_116" data-name="Ellipse 116" cx="14.756" cy="14.756" r="14.756" transform="translate(933.704 368.334)" fill="#555"/>
    <circle id="Ellipse_117" data-name="Ellipse 117" cx="14.756" cy="14.756" r="14.756" transform="translate(993.222 368.334)" fill="#555"/>
    <circle id="Ellipse_118" data-name="Ellipse 118" cx="14.756" cy="14.756" r="14.756" transform="translate(1052.74 368.334)" fill="#555"/>
    <rect id="Rectangle_70" data-name="Rectangle 70" width="101.328" height="31.48" transform="translate(766.71 266.269)" fill="#555"/>
    <rect id="Rectangle_71" data-name="Rectangle 71" width="179.045" height="106.247" transform="translate(734 238.477)" fill="none" stroke="#2b2b2b" stroke-miterlimit="10" stroke-width="1"/>
    <line id="Line_3" data-name="Line 3" x2="179.045" transform="translate(734 246.523)" fill="none" stroke="#2b2b2b" stroke-miterlimit="10" stroke-width="1"/>
    <rect id="Rectangle_72" data-name="Rectangle 72" width="101.328" height="31.48" transform="translate(772.859 260.12)" fill="none" stroke="#2b2b2b" stroke-miterlimit="10" stroke-width="1"/>
    <rect id="Rectangle_73" data-name="Rectangle 73" width="135.759" height="4.071" transform="translate(753.921 311.522)" fill="#f2f2f2"/>
    <rect id="Rectangle_74" data-name="Rectangle 74" width="135.759" height="4.071" transform="translate(753.921 321.292)" fill="#f2f2f2"/>
    <rect id="Rectangle_75" data-name="Rectangle 75" width="135.759" height="4.071" transform="translate(753.921 331.061)" fill="#f2f2f2"/>
    <rect id="Rectangle_76" data-name="Rectangle 76" width="135.759" height="4.071" transform="translate(755.397 309.554)" fill="none" stroke="#2b2b2b" stroke-miterlimit="10" stroke-width="1"/>
    <rect id="Rectangle_77" data-name="Rectangle 77" width="135.759" height="4.071" transform="translate(755.397 319.324)" fill="none" stroke="#2b2b2b" stroke-miterlimit="10" stroke-width="1"/>
    <rect id="Rectangle_78" data-name="Rectangle 78" width="135.759" height="4.071" transform="translate(755.397 329.094)" fill="none" stroke="#2b2b2b" stroke-miterlimit="10" stroke-width="1"/>
    <rect id="Rectangle_79" data-name="Rectangle 79" width="101.328" height="31.48" transform="translate(808.028 450.232)" fill="#555"/>
    <path id="Path_212" data-name="Path 212" d="M263.545,405.988v84.6H84.5V384.345H230.1" transform="translate(690.818 38.096)" fill="none" stroke="#2b2b2b" stroke-miterlimit="10" stroke-width="1"/>
    <line id="Line_4" data-name="Line 4" x2="145.843" transform="translate(775.318 430.487)" fill="none" stroke="#2b2b2b" stroke-miterlimit="10" stroke-width="1"/>
    <rect id="Rectangle_80" data-name="Rectangle 80" width="101.328" height="31.48" transform="translate(814.177 444.084)" fill="none" stroke="#2b2b2b" stroke-miterlimit="10" stroke-width="1"/>
    <circle id="Ellipse_131" data-name="Ellipse 131" cx="1.476" cy="1.476" r="1.476" transform="translate(925.342 340.789)" fill="#5f5f5f"/>
    <circle id="Ellipse_132" data-name="Ellipse 132" cx="1.476" cy="1.476" r="1.476" transform="translate(929.769 340.789)" fill="#9b9b9b"/>
    <circle id="Ellipse_133" data-name="Ellipse 133" cx="1.476" cy="1.476" r="1.476" transform="translate(934.196 340.789)" fill="#bababa"/>
    <rect id="Rectangle_81" data-name="Rectangle 81" width="179.045" height="106.247" transform="translate(920.915 337.345)" fill="none" stroke="#2b2b2b" stroke-miterlimit="10" stroke-width="1"/>
    <line id="Line_5" data-name="Line 5" x2="179.045" transform="translate(920.915 345.392)" fill="none" stroke="#2b2b2b" stroke-miterlimit="10" stroke-width="1"/>
    <circle id="Ellipse_134" data-name="Ellipse 134" cx="1.476" cy="1.476" r="1.476" transform="translate(925.834 339.805)" fill="none" stroke="#2b2b2b" stroke-miterlimit="10" stroke-width="1"/>
    <circle id="Ellipse_135" data-name="Ellipse 135" cx="1.476" cy="1.476" r="1.476" transform="translate(930.261 339.805)" fill="none" stroke="#2b2b2b" stroke-miterlimit="10" stroke-width="1"/>
    <circle id="Ellipse_136" data-name="Ellipse 136" cx="1.476" cy="1.476" r="1.476" transform="translate(934.688 339.805)" fill="none" stroke="#2b2b2b" stroke-miterlimit="10" stroke-width="1"/>
    <circle id="Ellipse_137" data-name="Ellipse 137" cx="14.756" cy="14.756" r="14.756" transform="translate(936.164 365.875)" fill="none" stroke="#2b2b2b" stroke-miterlimit="10" stroke-width="1"/>
    <circle id="Ellipse_138" data-name="Ellipse 138" cx="14.756" cy="14.756" r="14.756" transform="translate(995.681 365.875)" fill="none" stroke="#2b2b2b" stroke-miterlimit="10" stroke-width="1"/>
    <circle id="Ellipse_139" data-name="Ellipse 139" cx="14.756" cy="14.756" r="14.756" transform="translate(1055.199 365.875)" fill="none" stroke="#2b2b2b" stroke-miterlimit="10" stroke-width="1"/>
    <rect id="Rectangle_82" data-name="Rectangle 82" width="40.334" height="3.935" transform="translate(928.539 407.931)" fill="#f2f2f2"/>
    <rect id="Rectangle_83" data-name="Rectangle 83" width="40.334" height="3.935" transform="translate(988.549 407.931)" fill="#f2f2f2"/>
    <rect id="Rectangle_84" data-name="Rectangle 84" width="40.334" height="3.935" transform="translate(1048.559 407.931)" fill="#f2f2f2"/>
    <rect id="Rectangle_85" data-name="Rectangle 85" width="40.334" height="3.935" transform="translate(930.507 406.455)" fill="none" stroke="#2b2b2b" stroke-miterlimit="10" stroke-width="1"/>
    <rect id="Rectangle_86" data-name="Rectangle 86" width="40.334" height="3.935" transform="translate(990.517 406.455)" fill="none" stroke="#2b2b2b" stroke-miterlimit="10" stroke-width="1"/>
    <rect id="Rectangle_87" data-name="Rectangle 87" width="40.334" height="3.935" transform="translate(1050.526 406.455)" fill="none" stroke="#2b2b2b" stroke-miterlimit="10" stroke-width="1"/>
    <rect id="Rectangle_89" data-name="Rectangle 89" width="30.989" height="26.562" transform="translate(839.263 494.256)" fill="#f2f2f2"/>
    <rect id="Rectangle_90" data-name="Rectangle 90" width="30.989" height="26.562" transform="translate(896.567 494.502)" fill="#f2f2f2"/>
    <rect id="Rectangle_92" data-name="Rectangle 92" width="30.989" height="26.562" transform="translate(843.69 489.337)" fill="none" stroke="#2b2b2b" stroke-miterlimit="10" stroke-width="1"/>
    <rect id="Rectangle_93" data-name="Rectangle 93" width="30.989" height="26.562" transform="translate(900.994 489.583)" fill="none" stroke="#2b2b2b" stroke-miterlimit="10" stroke-width="1"/>
    <path id="Path_213" data-name="Path 213" d="M586.528,204.492l-13.8,7.647,14.719-5.192Z" transform="translate(442.742 129.483)" fill="#333"/>
    <ellipse id="Ellipse_140" data-name="Ellipse 140" cx="3.851" cy="7.758" rx="3.851" ry="7.758" transform="translate(1027.036 327.932) rotate(-17.994)" fill="#2b2b2b"/>
    <ellipse id="Ellipse_141" data-name="Ellipse 141" cx="2.905" cy="5.478" rx="2.905" ry="5.478" transform="translate(1040.644 323.893) rotate(-17.994)" fill="#2b2b2b"/>
    <path id="Path_214" data-name="Path 214" d="M610.365,192.266l9.155-3.305,1.946,5.39-8.861,5.985Z" transform="translate(423.617 137.374)" fill="#2b2b2b"/>
    <path id="Path_215" data-name="Path 215" d="M786.237,327.865l2.459-5.411s5.9-15.74.492-12.789-7.378,10.821-7.378,10.821l-1.476,4.919Z" transform="translate(246.869 21.593)" fill="#efefef"/>
    <path id="Path_216" data-name="Path 216" d="M915.616,510.974s-8.362,16.232-10.821,16.724-2.459-14.756-2.459-14.756,4.919-4.427,6.886-3.935S915.616,510.974,915.616,510.974Z" transform="translate(184.878 -79.865)" fill="#efefef"/>
    <path id="Path_217" data-name="Path 217" d="M891.5,721.046a6.26,6.26,0,0,1,2.459,7.87c-1.968,5.411-2.951,3.935-3.935,8.362s-9.838,3.935-10.33,1.967-1.476-9.838.984-12.789S891.5,721.046,891.5,721.046Z" transform="translate(196.692 -187.625)" fill="#b1b1b1"/>
    <path id="Path_218" data-name="Path 218" d="M812.274,721.046a6.26,6.26,0,0,0-2.459,7.87c1.968,5.411,2.951,3.935,3.935,8.362s9.838,3.935,10.33,1.967,1.476-9.838-.984-12.789S812.274,721.046,812.274,721.046Z" transform="translate(232.146 -187.625)" fill="#b1b1b1"/>
    <path id="Path_219" data-name="Path 219" d="M853.543,510.1s3.935,2.459,4.919,17.708a235.174,235.174,0,0,1-.984,36.4A35.217,35.217,0,0,0,858.954,577c.984,2.951-2.459,25.578-2.459,25.578a11.526,11.526,0,0,1,0,9.838c-2.459,5.411-9.838,10.821-11.805,5.411a13.346,13.346,0,0,0-1.476-5.411c-1.476-2.951.984-14.756.984-14.756s-1.968-18.692-1.476-23.61-5.9-33.94-6.886-38.859-.492-8.854-.984-7.378-9.346,42.3-9.346,42.3.984,26.07.492,29.513,1.967,10.33.492,12.789-4.427,11.313-9.838,5.9-4.427-7.378-4.919-9.838,0-5.411,0-9.346-3.935-26.07-1.968-29.513.984-7.87.492-15.74-.984-45.745,3.935-52.631S853.543,510.1,853.543,510.1Z" transform="translate(232.194 -75.054)" fill="#2b2b2b"/>
    <circle id="Ellipse_142" data-name="Ellipse 142" cx="11.805" cy="11.805" r="11.805" transform="translate(1061.881 319.207)" fill="#efefef"/>
    <path id="Path_220" data-name="Path 220" d="M870.518,315.278s-.492,17.708,1.967,20.659-21.151-2.459-21.151-2.459,5.411-11.313,1.967-18.692S870.518,315.278,870.518,315.278Z" transform="translate(210.792 20.407)" fill="#efefef"/>
    <path id="Path_221" data-name="Path 221" d="M853.6,350.792s-.984-3.935-6.886-4.919-12.883-1.968-15.049,0-3.15,4.427-4.626,4.427h-6.886l-10.821,19.183s5.411,6.394,3.935,18.2-3.935,33.448-3.935,33.448a108.211,108.211,0,0,1,10.33,16.724c4.919,9.838,38.859,8.854,36.891-8.362,0,0-2.459-4.427-1.476-8.362s3.935-30.5,3.935-30.5l11.313-30S854.588,352.759,853.6,350.792Z" transform="translate(232.133 3.585)" fill="#333"/>
    <path id="Path_222" data-name="Path 222" d="M916.681,376.046h3.443s1.967,11.313,1.476,18.2-.492,23.118-.492,23.118,1.968,3.935,1.476,7.378-1.476,12.789-1.476,12.789-.492,13.281-9.838,6.394c0,0-2.951-1.476-1.476-7.87s-.984-13.281-.984-13.281,1.476-4.427.984-7.378-2.459-12.3-2.459-12.3Z" transform="translate(182.338 -12.324)" fill="#333"/>
    <path id="Path_223" data-name="Path 223" d="M802.475,348.137l-2.459-1.476a13.127,13.127,0,0,0-8.362,0c-4.919,1.476-7.378.984-9.346.492s-.492-5.411-.492-5.411-3.935-6.886-7.87-2.951-3.935,11.805-3.935,11.805-2.459,4.919,6.394,7.87,12.789,7.378,12.789,7.378h9.838Z" transform="translate(252.274 7.223)" fill="#333"/>
    <path id="Path_224" data-name="Path 224" d="M859.389,304.329a2.28,2.28,0,0,0-1.414-2.031,6.449,6.449,0,0,0-1.681-.332,6.462,6.462,0,0,1-4.374-2.11c-1.3-1.7-.944-4.087-1.985-5.937a20.581,20.581,0,0,0-1.587-2.086c-1.817-2.432-2.137-5.536-2.3-8.49a3.645,3.645,0,0,1,.2-1.774,6.825,6.825,0,0,1,1.122-1.385,4.6,4.6,0,0,0,1.113-3.07c-.053-2.287,3.22-3.825,5.538-4.615a23.621,23.621,0,0,1,7.3-.949,10.948,10.948,0,0,1,4.19.516,9.643,9.643,0,0,1,2.1,1.251c2.735,2,5.3,4.463,6.221,7.578a16.392,16.392,0,0,1,.5,4.352,2.848,2.848,0,0,1-.195,1.339c-.328.66-1.1,1.017-1.6,1.577-.934,1.045-.768,2.558-.886,3.91a8.957,8.957,0,0,1-4.4,6.775,5.615,5.615,0,0,0-1.376.951,6.044,6.044,0,0,0-.759,1.325A6.894,6.894,0,0,1,859.389,304.329Z" transform="translate(213.497 40.774)" fill="#2b2b2b"/>
    <path id="Path_225" data-name="Path 225" d="M185.83,10.671l-6.552,3.63,6.987-2.464Z" transform="translate(642.66 227.967)" fill="#79758c"/>
    <ellipse id="Ellipse_143" data-name="Ellipse 143" cx="1.828" cy="3.683" rx="1.828" ry="3.683" transform="translate(827.429 235.769) rotate(-17.994)" fill="#2b2b2b"/>
    <ellipse id="Ellipse_144" data-name="Ellipse 144" cx="1.379" cy="2.6" rx="1.379" ry="2.6" transform="translate(833.888 233.852) rotate(-17.994)" fill="#2b2b2b"/>
    <path id="Path_226" data-name="Path 226" d="M197.145,4.868,201.491,3.3l.924,2.558L198.208,8.7Z" transform="translate(633.581 231.712)" fill="#2b2b2b"/>
    <path id="Path_227" data-name="Path 227" d="M275.83,382.671l-6.552,3.63,6.987-2.464Z" transform="translate(596.929 38.947)" fill="#79758c"/>
    <ellipse id="Ellipse_145" data-name="Ellipse 145" cx="1.828" cy="3.683" rx="1.828" ry="3.683" transform="translate(871.698 418.75) rotate(-17.994)" fill="#2b2b2b"/>
    <ellipse id="Ellipse_146" data-name="Ellipse 146" cx="1.379" cy="2.6" rx="1.379" ry="2.6" transform="translate(878.158 416.833) rotate(-17.994)" fill="#2b2b2b"/>
    <path id="Path_228" data-name="Path 228" d="M287.145,376.868l4.346-1.569.924,2.558-4.206,2.841Z" transform="translate(587.851 42.693)" fill="#2b2b2b"/>
  </g>
</svg>
