<svg xmlns="http://www.w3.org/2000/svg" width="400.768" height="418.151" viewBox="0 0 400.768 418.151">
  <g id="Group_30" data-name="Group 30" transform="translate(-147.232 -191)">
    <path id="Path_194" data-name="Path 194" d="M520.837,272.651l-2.707,7.134s-2.7,36.337-2.7,39.039,1.965,37.331,2.7,38.8c0,0,3.193-4.666,7.368-3.93s2.456-12.28,2.456-12.28l3.93-32.174-.737-16.21Z" transform="translate(-210.525 37.861)" opacity="0.1"/>
    <path id="Path_196" data-name="Path 196" d="M559.2,189.917s8.1,20.63,3.438,24.56,26.034-6.631,26.034-6.631l-.737-2.7s-10.07-3.93-5.158-15.227S559.2,189.917,559.2,189.917Z" transform="translate(-232.19 81.298)" opacity="0.1"/>
    <ellipse id="Ellipse_112" data-name="Ellipse 112" cx="148.474" cy="26.261" rx="148.474" ry="26.261" transform="translate(201.259 556.629)" fill="#ff6b6b"/>
    <path id="Path_183" data-name="Path 183" d="M359.174,254.309c0-38.258,56.1-69.272,125.3-69.272s125.3,31.014,125.3,69.272" transform="translate(-133.178 81.229)" fill="none" stroke="#2b2b2b" stroke-miterlimit="10" stroke-width="2"/>
    <path id="Path_184" data-name="Path 184" d="M570.563,137.937H468.626q-30.243-50.969,0-101.937H570.563Q528.277,86.969,570.563,137.937Z" transform="translate(-179.871 155)" fill="#e6e6e6"/>
    <rect id="Rectangle_56" data-name="Rectangle 56" width="57.441" height="7.281" transform="translate(303.318 203.135)" fill="#ff6b6b"/>
    <rect id="Rectangle_57" data-name="Rectangle 57" width="76.048" height="2.427" transform="translate(284.71 227.002)" fill="#fff"/>
    <rect id="Rectangle_58" data-name="Rectangle 58" width="76.048" height="2.427" transform="translate(284.71 239.542)" fill="#fff"/>
    <rect id="Rectangle_59" data-name="Rectangle 59" width="76.048" height="2.427" transform="translate(284.71 252.082)" fill="#fff"/>
    <path id="Path_185" data-name="Path 185" d="M765.887,684.659c0,32.329,20.282,58.489,45.346,58.489" transform="translate(-334.496 -166.078)" fill="#586ba4"/>
    <path id="Path_186" data-name="Path 186" d="M855.677,742.5c0-32.692,22.633-59.146,50.6-59.146" transform="translate(-378.941 -165.434)" fill="#ff6b6b"/>
    <path id="Path_187" data-name="Path 187" d="M798.42,690.463c0,30.709,12.933,55.558,28.916,55.558" transform="translate(-350.599 -168.951)" fill="#ff6b6b"/>
    <path id="Path_188" data-name="Path 188" d="M855.677,726.4c0-41.773,26.16-75.576,58.489-75.576" transform="translate(-378.941 -149.331)" fill="#586ba4"/>
    <path id="Path_189" data-name="Path 189" d="M836.788,797.887s6.431-.2,8.369-1.578,9.892-3.028,10.373-.815,9.664,11.008,2.4,11.067-16.87-1.131-18.8-2.309S836.788,797.887,836.788,797.887Z" transform="translate(-369.591 -220.404)" fill="#a8a8a8"/>
    <path id="Path_190" data-name="Path 190" d="M858.063,809.188c-7.26.059-16.87-1.131-18.8-2.309-1.473-.9-2.06-4.117-2.256-5.6l-.215.008s.407,5.187,2.342,6.365,11.544,2.368,18.8,2.309c2.1-.017,2.82-.763,2.78-1.867C860.422,808.759,859.623,809.176,858.063,809.188Z" transform="translate(-369.591 -223.802)" opacity="0.2"/>
    <path id="Path_191" data-name="Path 191" d="M551.947,160.568a1.406,1.406,0,0,0,1.649-.681c1.325-2.088-1.115-4.78-.586-7.2.423-1.935,2.623-3.084,3.072-5.014.437-1.875-.909-3.988,0-5.685.713-1.329,2.494-1.679,3.984-1.446s2.9.888,4.41.98c2.006.122,3.918-.761,5.88-1.2s4.354-.266,5.508,1.379c1.482,2.113-.021,5.055.495,7.583.41,2.008,2.091,3.67,2.127,5.719.013.728-1.9.142-1.8.863s-.8.086-.08,0a1.432,1.432,0,0,0,1.088-1.295c.086-.6,1.215-.8,1.2-1.408-.03-1.422,2.54-.463,2.963-1.821a13.767,13.767,0,0,0-.563-9.6,19.232,19.232,0,0,1-1.64-3.906c-.378-1.885.217-3.909-.406-5.728-.839-2.451-3.617-3.7-6.2-3.954s-5.2.2-7.762-.174c-2.3-.335-4.52-1.331-6.837-1.186-2.78.173-5.2,1.964-7.125,3.975s-3.561,4.324-5.75,6.046a11.273,11.273,0,0,0-1.844,1.587,6.192,6.192,0,0,0-.918,5.023c.31,1.729.985,3.379,1.27,5.113.268,1.629.185,3.294.3,4.941a8.684,8.684,0,0,0,1.449,4.664,4.4,4.4,0,0,0,3.425,1.79c.464.011.856-.406,1.324-.3C551.174,159.774,551.428,160.329,551.947,160.568Z" transform="translate(-224.007 110.064)" fill="#2f2e41"/>
    <path id="Path_192" data-name="Path 192" d="M318.546,393.5l1.719,10.561L323.7,399.4l-1.965-7.122Z" transform="translate(-10.444 -3.171)" fill="#efefef"/>
    <path id="Path_193" data-name="Path 193" d="M520.837,272.651l-2.707,7.134s-2.7,36.337-2.7,39.039,1.965,37.331,2.7,38.8c0,0,3.193-4.666,7.368-3.93s2.456-12.28,2.456-12.28l3.93-32.174-.737-16.21Z" transform="translate(-210.525 37.861)" fill="#586ba4"/>
    <path id="Path_195" data-name="Path 195" d="M559.2,189.917s8.1,20.63,3.438,24.56,26.034-6.631,26.034-6.631l-.737-2.7s-10.07-3.93-5.158-15.227S559.2,189.917,559.2,189.917Z" transform="translate(-232.19 81.298)" fill="#efefef"/>
    <path id="Path_197" data-name="Path 197" d="M503.473,740.306s-3.438-.982-5.4,1.474-9.333,8.6-9.333,8.6-14.245-1.474-16.21,5.649,22.35,7.122,28.244,5.4,7.122,0,7.122,0,18.175,1.474,18.175-1.474-1.719-13.017-1.719-13.017Z" transform="translate(-189.231 -193.526)" fill="#586ba4"/>
    <path id="Path_198" data-name="Path 198" d="M639.36,772.652l-3.193,9.824s-9.578,13.262-4.175,15.964,24.56,5.4,24.56-1.719V783.213s-1.965-9.578-3.93-10.561S639.36,772.652,639.36,772.652Z" transform="translate(-267.401 -209.417)" fill="#586ba4"/>
    <path id="Path_199" data-name="Path 199" d="M530.889,412.91s-10.355,9-10.109,10.225,5.158,80.066,5.158,80.066l2.7,51.085s-3.438,12.034-1.719,14.736-2.456,3.438-2.456,3.438,17.683,15.964,25.051,9.087l6.877-89.153L575.3,557.233s3.193,34.384,6.877,34.384,18.666.737,18.42-1.228.737-16.946-.982-25.788-13.262-78.838-13.262-78.838-.992-60.007,1.591-65.615-1.346-11.5-1.346-11.5l-17.192-6.631-20.63,2.456Z" transform="translate(-213.169 -26.172)" fill="#ff6b6b"/>
    <circle id="Ellipse_113" data-name="Ellipse 113" cx="17.192" cy="17.192" r="17.192" transform="translate(321.364 245.182)" fill="#efefef"/>
    <path id="Path_200" data-name="Path 200" d="M593.458,236.322a15.422,15.422,0,0,0-10.806-9.824,95.25,95.25,0,0,1-14.49-4.912s-17.438,8.35-20.876,8.35-3.438-2.21-3.438-2.21-8.842,9.333-13.508,10.315-11.543,12.526-9.087,18.911A35.638,35.638,0,0,0,528.374,268s-.982,34.384,2.21,40.77c0,0-7.859,14.982-.491,15.964s35.612-2.456,40.524.982,14-.737,15.227,3.93,3.93,5.649,3.93,5.649,4.175-6.631,1.719-10.561S593.458,236.322,593.458,236.322Z" transform="translate(-213.15 63.137)" fill="#586ba4"/>
    <path id="Path_201" data-name="Path 201" d="M624.9,433.625l-3.93,2.456s4.175,14.49,5.894,14.982,5.766-12.39,5.766-12.39Z" transform="translate(-262.762 -41.819)" fill="#a0616a"/>
    <path id="Path_202" data-name="Path 202" d="M546.112,157.163a1.406,1.406,0,0,0,1.648-.681c1.325-2.088-1.115-4.78-.586-7.2.423-1.935,2.623-3.084,3.072-5.014.437-1.875-.909-3.988,0-5.685.713-1.329,2.494-1.679,3.984-1.446s2.9.888,4.41.98c2.006.122,3.918-.761,5.88-1.2s4.354-.266,5.508,1.379c1.482,2.113-.021,5.055.495,7.583.41,2.008,5.077,3.417,5.5,2.059a13.767,13.767,0,0,0-.563-9.6,19.242,19.242,0,0,1-1.64-3.906c-.378-1.885.216-3.909-.406-5.728-.839-2.451-3.617-3.7-6.2-3.955s-5.2.2-7.762-.174c-2.3-.335-4.52-1.331-6.837-1.186-2.78.173-5.2,1.964-7.125,3.975s-3.561,4.324-5.75,6.046A11.28,11.28,0,0,0,537.9,135a6.193,6.193,0,0,0-.917,5.023c.31,1.729.985,3.379,1.27,5.113.268,1.629.185,3.294.3,4.941A8.684,8.684,0,0,0,540,154.742a4.4,4.4,0,0,0,3.425,1.79c.464.011.855-.406,1.324-.3C545.338,156.369,545.592,156.925,546.112,157.163Z" transform="translate(-221.118 111.749)" fill="#2f2e41"/>
    <path id="Path_203" data-name="Path 203" d="M633.024,255.064l7.982-4.3s19.4,46.173,14.736,58.944-22.6,39.051-22.6,39.051-14.245-2.947-12.771-5.894,11.052-21.858,11.789-24.315,5.649-18.42,3.438-20.139-6.508-41.629-6.508-41.629Z" transform="translate(-262.417 48.694)" opacity="0.1"/>
    <path id="Path_204" data-name="Path 204" d="M634.586,245.416l9.824,2.7s19.4,46.173,14.736,58.944-22.6,39.051-22.6,39.051-14.245-2.947-12.771-5.894,11.052-21.858,11.789-24.315,5.649-18.42,3.439-20.139-12.771-44.208-12.771-44.208Z" transform="translate(-264.102 51.342)" fill="#586ba4"/>
    <path id="Path_205" data-name="Path 205" d="M609.771,322.205c0,40.111-56.1,72.627-125.3,72.627s-125.3-32.516-125.3-72.627" transform="translate(-133.178 13.332)" fill="none" stroke="#2b2b2b" stroke-miterlimit="10" stroke-width="2"/>
    <path id="Path_206" data-name="Path 206" d="M608.793,468.058C580.786,483.163,544.241,492.3,504.265,492.3c-38.329,0-73.5-8.4-101.023-22.409" transform="translate(-154.991 -58.863)" fill="none" stroke="#2b2b2b" stroke-miterlimit="10" stroke-width="2"/>
    <path id="Path_207" data-name="Path 207" d="M731.188,147.906c53.3,14.01,91.262,44.826,94.792,81.12" transform="translate(-317.32 99.608)" fill="none" stroke="#2b2b2b" stroke-miterlimit="10" stroke-width="2"/>
    <path id="Path_208" data-name="Path 208" d="M302.373,220.467c8.981-16.507,25.388-31.033,46.884-42.193" transform="translate(-105.063 84.576)" fill="none" stroke="#2b2b2b" stroke-miterlimit="10" stroke-width="2"/>
    <path id="Path_209" data-name="Path 209" d="M520.568,511.793H622.505q30.243-50.969,0-101.937H520.568Q562.854,460.825,520.568,511.793Z" transform="translate(-213.066 -30.054)" fill="#f2f2f2"/>
    <rect id="Rectangle_60" data-name="Rectangle 60" width="57.441" height="7.281" transform="translate(341.231 399.219)" fill="#ff6b6b"/>
    <rect id="Rectangle_61" data-name="Rectangle 61" width="76.048" height="2.427" transform="translate(336.781 421.063)" fill="#fff"/>
    <rect id="Rectangle_62" data-name="Rectangle 62" width="76.048" height="2.427" transform="translate(336.781 433.602)" fill="#fff"/>
    <path id="Path_210" data-name="Path 210" d="M320.269,374.786H218.331q-30.243-50.969,0-101.937H320.269Q277.982,323.817,320.269,374.786Z" transform="translate(-55.978 37.763)" fill="#f2f2f2"/>
    <rect id="Rectangle_63" data-name="Rectangle 63" width="57.441" height="7.281" transform="translate(173.68 322.747)" fill="#ff6b6b"/>
    <rect id="Rectangle_64" data-name="Rectangle 64" width="76.048" height="2.427" transform="translate(161.14 342.973)" fill="#fff"/>
    <rect id="Rectangle_65" data-name="Rectangle 65" width="76.048" height="2.427" transform="translate(161.14 355.513)" fill="#fff"/>
    <rect id="Rectangle_66" data-name="Rectangle 66" width="76.048" height="2.427" transform="translate(161.14 368.052)" fill="#fff"/>
    <rect id="Rectangle_67" data-name="Rectangle 67" width="76.048" height="2.427" transform="translate(161.14 380.592)" fill="#fff"/>
    <path id="Path_211" data-name="Path 211" d="M765,281.807H866.934q30.243-50.969,0-101.937H765Q807.283,230.838,765,281.807Z" transform="translate(-334.055 83.786)" fill="#f2f2f2"/>
    <rect id="Rectangle_68" data-name="Rectangle 68" width="57.441" height="7.281" transform="translate(463.457 273.769)" fill="#ff6b6b"/>
    <rect id="Rectangle_69" data-name="Rectangle 69" width="76.048" height="2.427" transform="translate(457.389 293.994)" fill="#fff"/>
  </g>
</svg>
