<svg xmlns="http://www.w3.org/2000/svg" xmlns:xlink="http://www.w3.org/1999/xlink" width="617.25" height="395.793" viewBox="0 0 617.25 395.793">
  <defs>
    <linearGradient id="linear-gradient" x1="0.5" y1="1" x2="0.5" gradientUnits="objectBoundingBox">
      <stop offset="0" stop-color="gray" stop-opacity="0.251"/>
      <stop offset="0.54" stop-color="gray" stop-opacity="0.122"/>
      <stop offset="1" stop-color="gray" stop-opacity="0.102"/>
    </linearGradient>
  </defs>
  <g id="Group_33" data-name="Group 33" transform="translate(-331 -100.719)">
    <path id="Path_245" data-name="Path 245" d="M903.079,729.138s-2.007,12.106-12.185,13.9-44.142,1.432-44.142,1.432-19.421-2.8-26.444-19.2-11.536-22.927-5.519-23.223,38.483,10.966,40.345,11.111S904.868,688.217,903.079,729.138Z" transform="translate(-53.81 -262.487)" fill="#333" opacity="0.05"/>
    <path id="Path_273" data-name="Path 273" d="M919.135,765.43c.151,3.612,2.964,8.1,4.641,10.468,1.063,0,1.879-.073,1.879-.073s-.654-17.447-1.118-19.281c-.235-.878-1.4-.682-2.539-.246C920.583,758.9,919.012,762.522,919.135,765.43Z" transform="translate(-101.04 -286.242)" fill="#555" opacity="0.1"/>
    <path id="Path_274" data-name="Path 274" d="M914.727,765.911c.951,3.484.939,7.392,2.46,9.758a4.282,4.282,0,0,0,.693.156,32.725,32.725,0,0,0,3.853.073c1.063,0,1.879-.073,1.879-.073s-.654-17.447-1.118-19.281c-.235-.878-1.4-.682-2.539-.246a16.782,16.782,0,0,0-2.477,1.253S913.508,761.449,914.727,765.911Z" transform="translate(-98.998 -286.242)" fill="#333" opacity="0.05"/>
    <ellipse id="Ellipse_147" data-name="Ellipse 147" cx="107.364" cy="24.045" rx="107.364" ry="24.045" transform="translate(695.269 448.422)" fill="#555" opacity="0.1"/>
    <g id="Group_27" data-name="Group 27" transform="translate(680.523 115.699)" opacity="0.1">
      <path id="Path_229" data-name="Path 229" d="M673.12,122.89c0,87.289,54.761,157.92,122.462,157.92" transform="translate(-673.12 -122.89)" fill="#6c63ff"/>
    </g>
    <path id="Path_230" data-name="Path 230" d="M398.93,189.408c-39.563.3-77.576-8.639-113.923-18.6s-72.4-21.171-111.161-25.745c-24.951-2.947-53.347-2.483-72.957,8.947C82.016,165,76.43,183.022,73.673,199.653c-2.075,12.515-3.087,25.644,4.216,37.029,5.044,7.9,13.756,14.388,19.907,21.915,21.395,26.187,8.125,59.889-13.091,86.959-9.948,12.7-21.585,24.884-29.134,38.293s-10.725,28.574-3.238,41.715c7.426,13.018,24.347,22.368,42.549,28.77,36.979,12.917,80.081,15.489,122.048,16.306,92.9,1.817,186.047-3.707,278.94-9.227,34.373-2.047,68.9-4.1,102.6-9.59,18.71-3.048,37.98-7.515,51.3-17.117,16.915-12.19,20.511-31.935,8.388-46.038-20.338-23.648-74.372-27.78-88.911-53.419-8-14.114-.878-30.4,9.506-44.131,22.334-29.436,60.588-55.919,61.511-88.7.615-22.507-19.012-44.332-48.47-53.923-30.9-10.065-73.136-7.152-94.978,12.084C474.32,180.389,433.868,189.145,398.93,189.408Z" transform="translate(282.935 -15.978)" fill="#333" opacity="0.1"/>
    <path id="Path_231" data-name="Path 231" d="M655.623,113.541V403.43c0,8.623-8.321,15.657-18.587,15.657H243.692c-10.267,0-18.582-7.012-18.582-15.657V113.541c0-8.639,8.315-17.441,18.582-17.441l393.294.956C647.235,97.056,655.623,104.9,655.623,113.541Z" transform="translate(204.891 4.619)" fill="#fff"/>
    <rect id="Rectangle_94" data-name="Rectangle 94" width="39.149" height="18.576" rx="8.57" transform="translate(586.568 196.172)" fill="#555" opacity="0.2"/>
    <rect id="Rectangle_95" data-name="Rectangle 95" width="39.149" height="18.576" rx="8.57" transform="translate(665.883 196.172)" fill="#555" opacity="0.2"/>
    <path id="Path_233" data-name="Path 233" d="M491.81,202.98,531,254.152l40.368-51.412" transform="translate(114.224 11.348)" fill="none" stroke="#3f3d56" stroke-miterlimit="10" stroke-width="1"/>
    <rect id="Rectangle_96" data-name="Rectangle 96" width="59.85" height="28.401" rx="8.57" transform="translate(615.294 263.862)" opacity="0.1"/>
    <rect id="Rectangle_97" data-name="Rectangle 97" width="57.417" height="27.249" rx="8.57" transform="translate(616.513 264.443)" fill="#555"/>
    <line id="Line_6" data-name="Line 6" x1="0.509" y1="18.09" transform="translate(605.793 178.082)" fill="none" stroke="#3f3d56" stroke-miterlimit="10" stroke-width="1"/>
    <path id="Path_234" data-name="Path 234" d="M638.011,139.93l-23,17.206-24.2-17.206" transform="translate(70.583 39.036)" fill="none" stroke="#3f3d56" stroke-miterlimit="10" stroke-width="1"/>
    <rect id="Rectangle_98" data-name="Rectangle 98" width="39.149" height="18.576" rx="8.57" transform="translate(586.35 160.384)" fill="#555" opacity="0.2"/>
    <rect id="Rectangle_99" data-name="Rectangle 99" width="39.149" height="18.576" rx="8.57" transform="translate(689.017 160.384)" fill="#555" opacity="0.2"/>
    <rect id="Rectangle_100" data-name="Rectangle 100" width="39.149" height="18.576" rx="8.57" transform="translate(641.822 160.384)" fill="#555" opacity="0.2"/>
    <line id="Line_7" data-name="Line 7" x1="0.151" y2="49.488" transform="translate(645.07 291.687)" fill="none" stroke="#3f3d56" stroke-miterlimit="10" stroke-width="1"/>
    <path id="Path_235" data-name="Path 235" d="M609.53,558.59Z" transform="translate(35.434 -199.252)" fill="none" stroke="#3f3d56" stroke-miterlimit="10" stroke-width="1"/>
    <path id="Path_236" data-name="Path 236" d="M462.42,479.608l55.36-17.128,55.583,17" transform="translate(127.179 -103.148)" fill="none" stroke="#3f3d56" stroke-miterlimit="10" stroke-width="1"/>
    <rect id="Rectangle_101" data-name="Rectangle 101" width="39.149" height="18.576" rx="8.57" transform="translate(625.499 341.175)" fill="#555" opacity="0.2"/>
    <rect id="Rectangle_102" data-name="Rectangle 102" width="39.149" height="18.576" rx="8.57" transform="translate(814.935 229.684) rotate(90)" fill="#555" opacity="0.2"/>
    <rect id="Rectangle_103" data-name="Rectangle 103" width="39.149" height="18.576" rx="8.57" transform="translate(796.359 330.137) rotate(-90)" fill="#555" opacity="0.2"/>
    <rect id="Rectangle_104" data-name="Rectangle 104" width="39.149" height="18.576" rx="8.57" transform="translate(680.97 376.208)" fill="#555" opacity="0.2"/>
    <rect id="Rectangle_105" data-name="Rectangle 105" width="39.149" height="18.576" rx="8.57" transform="translate(609.176 394.79) rotate(180)" fill="#555" opacity="0.2"/>
    <rect id="Rectangle_106" data-name="Rectangle 106" width="39.149" height="18.576" rx="8.57" transform="translate(665.621 394.79) rotate(180)" fill="#555" opacity="0.2"/>
    <line id="Line_8" data-name="Line 8" x2="17.424" y2="30.47" transform="translate(778.929 279.91)" fill="none" stroke="#3f3d56" stroke-miterlimit="10" stroke-width="1"/>
    <line id="Line_9" data-name="Line 9" x2="18.291" transform="translate(742.084 279.536)" fill="none" stroke="#3f3d56" stroke-miterlimit="10" stroke-width="1"/>
    <line id="Line_10" data-name="Line 10" x2="49.924" y2="1.471" transform="translate(673.93 278.065)" fill="none" stroke="#3f3d56" stroke-miterlimit="10" stroke-width="1"/>
    <line id="Line_11" data-name="Line 11" x1="17.34" y2="30.52" transform="translate(779.013 249.256)" fill="none" stroke="#3f3d56" stroke-miterlimit="10" stroke-width="1"/>
    <rect id="Rectangle_107" data-name="Rectangle 107" width="39.149" height="18.576" rx="8.57" transform="translate(742.431 259.847) rotate(90)" fill="#555" opacity="0.2"/>
    <rect id="Rectangle_108" data-name="Rectangle 108" width="39.149" height="18.576" rx="8.57" transform="translate(778.929 260.333) rotate(90)" fill="#555" opacity="0.2"/>
    <rect id="Rectangle_109" data-name="Rectangle 109" width="39.149" height="18.576" rx="8.57" transform="translate(494.084 229.679) rotate(90)" fill="#555" opacity="0.2"/>
    <rect id="Rectangle_110" data-name="Rectangle 110" width="39.149" height="18.576" rx="8.57" transform="translate(475.508 330.137) rotate(-90)" fill="#555" opacity="0.2"/>
    <line id="Line_12" data-name="Line 12" x1="17.43" y2="30.47" transform="translate(494.084 279.91)" fill="none" stroke="#3f3d56" stroke-miterlimit="10" stroke-width="1"/>
    <line id="Line_13" data-name="Line 13" x1="18.285" transform="translate(530.068 279.536)" fill="none" stroke="#3f3d56" stroke-miterlimit="10" stroke-width="1"/>
    <line id="Line_14" data-name="Line 14" x1="49.924" y2="1.471" transform="translate(566.588 278.065)" fill="none" stroke="#3f3d56" stroke-miterlimit="10" stroke-width="1"/>
    <line id="Line_15" data-name="Line 15" x2="17.34" y2="30.52" transform="translate(494.084 249.256)" fill="none" stroke="#3f3d56" stroke-miterlimit="10" stroke-width="1"/>
    <rect id="Rectangle_111" data-name="Rectangle 111" width="39.149" height="18.576" rx="8.57" transform="translate(566.588 259.852) rotate(90)" fill="#555" opacity="0.2"/>
    <rect id="Rectangle_112" data-name="Rectangle 112" width="39.149" height="18.576" rx="8.57" transform="translate(530.09 260.333) rotate(90)" fill="#555" opacity="0.2"/>
    <path id="Path_237" data-name="Path 237" d="M156.12,598c0,28.094,17.626,50.83,39.406,50.83" transform="translate(235.303 -216.625)" fill="#333"/>
    <path id="Path_238" data-name="Path 238" d="M226.59,648.371c0-28.412,19.672-51.4,43.98-51.4" transform="translate(204.239 -216.171)" fill="#555"/>
    <path id="Path_239" data-name="Path 239" d="M181.66,602.55c0,26.685,11.24,48.28,25.124,48.28" transform="translate(224.045 -218.631)" fill="#555"/>
    <path id="Path_240" data-name="Path 240" d="M226.59,637.117c0-36.3,22.737-65.677,50.83-65.677" transform="translate(204.239 -204.917)" fill="#333"/>
    <ellipse id="Ellipse_151" data-name="Ellipse 151" cx="9.797" cy="1.655" rx="9.797" ry="1.655" transform="translate(419.321 438.597)" fill="#6c63ff" opacity="0.1"/>
    <path id="Path_241" data-name="Path 241" d="M211.77,687.15s5.592-.173,7.269-1.37,8.595-2.634,9.014-.71,8.388,9.568,2.086,9.618-14.662-.984-16.339-2.007S211.77,687.15,211.77,687.15Z" transform="translate(210.772 -254.592)" fill="#a8a8a8"/>
    <path id="Path_242" data-name="Path 242" d="M230.257,696.392c-6.308.05-14.656-.979-16.339-2.008-1.281-.777-1.789-3.573-1.963-4.865h-.185s.352,4.507,2.035,5.53,10.032,2.058,16.339,2.008c1.823,0,2.449-.665,2.416-1.622C232.309,696.023,231.616,696.381,230.257,696.392Z" transform="translate(210.772 -256.968)" opacity="0.2"/>
    <path id="Path_243" data-name="Path 243" d="M905.109,647.005l-15.473-22.435s-.291-5.553-1.3-6.856-.218-4.183-.218-4.183,1.085-1.588.146-1.728-.146-3.679-.146-3.679l-.073-5.631s.867-5.407.145-6.71a2.136,2.136,0,0,1,.073-2.309s.867-3.1,0-3.914-.654-5.626-.436-9.445-1.515-5.989-1.515-6.565-5.715-6.207-5.715-6.71-3.612-2.595-5.782-3.176-3.255-1.006-3.182-1.3-3.4-1.443-3.4-1.443-3.036-.212-4.194-1.728-4.7-1.957-4.792-1.968a1.958,1.958,0,0,0-.067-.3l-.067-.324c.274-.459.526-.928.755-1.415l.2-.442a6.15,6.15,0,0,0,3.556-1.118,4.865,4.865,0,0,0,1.734-3.461,7.605,7.605,0,0,0-.844-3.842c-.638-1.3-1.566-2.645-1.247-4.054.14-.609.5-1.118.693-1.739a4.579,4.579,0,0,0-.52-3.417c-.559-1.046-1.308-1.968-1.918-2.986a11.592,11.592,0,0,1-1.527-4.216,6.642,6.642,0,0,0-.559-2.3,4.262,4.262,0,0,0-1.269-1.28,12.665,12.665,0,0,0-7.773-2.354c-1.968.067-3.914.6-5.883.358a21.768,21.768,0,0,1-3.439-.9c-2.421-.716-5.223-1.012-7.331.375s-2.952,4.116-4.384,6.252c-1.269,1.89-3.12,3.473-4.082,5.474a.183.183,0,0,1,.028-.117,6.907,6.907,0,0,0-.559,1.459,10.373,10.373,0,0,0,.319,4.781,3.375,3.375,0,0,0,1.169,2.136,6.634,6.634,0,0,0,2.527.5c-.034.14-.067.274-.1.414a16.5,16.5,0,0,0,11.463,19.264v.436a11.048,11.048,0,0,1-.078,1.241h0s-7.269-1.493-9.221-.487-5.788,1.806-6.364,2.382-2.024.145-3.327,3.534-1.443,6.856-3.109,8.438-2.528,2.673-2.6,3.825.212,1.443-.436,1.806-1.588,1.873-1.3,2.449a2.051,2.051,0,0,1-.794,2.164,2.41,2.41,0,0,0-1.012,2.164s-.436,1.588-1.448,1.946-1.678,2.746-1.678,2.746l-3.277,3.769-6.5-7.191a2.74,2.74,0,0,0-3.864-.2l-3.137,2.908a6.285,6.285,0,0,0-3.193,1.9,8.387,8.387,0,0,0-1.678,2.46l-1.745,1.577a2.684,2.684,0,0,0-.9,1.924,2.712,2.712,0,0,0,.453,2.975l4.16,4.608v.039a7.27,7.27,0,0,0-4.026,1.638c-6.218,5.48-6.291,10.529-5.351,12.861s8.818,11.184,8.818,11.184a35.242,35.242,0,0,0,11.184,9.12h0l-.045.05c-.134.14-.263.291-.391.453l-.106.14-.1.14-.118.173-.089.14-.129.207a1.128,1.128,0,0,1-.078.14c-.05.089-.1.185-.145.28l-.05.1c-.062.123-.118.257-.179.391a.658.658,0,0,0-.056.145c-.017.045-.078.19-.112.291l-.067.185c-.034.089-.062.185-.1.28s-.039.134-.061.207l-.084.313-.05.2c-.045.168-.078.341-.117.52l-.034.207a3.184,3.184,0,0,1-.062.369c-.017.129-.028.173-.039.263a1.484,1.484,0,0,1-.045.358c-.045.123,0,.185-.028.274a2.03,2.03,0,0,0,0,.414v.252a5.985,5.985,0,0,1-.028.7c-.145,8.438.347,9.663.347,9.663a4.684,4.684,0,0,0,3.842,2.88,5,5,0,0,0,1.236-.067c3.758-.649,12.582-2.164,15.691-1.583,1.868.347,5.329-.168,7.789-.632l.654-.129.447,1.437,1.431-.391,1.213.7.766.442c1.426,4.837,7.219,3.187,7.219,3.187l1.376.794,13.98.358a28.261,28.261,0,0,0,4.943,2.377,4.964,4.964,0,0,0,.7.151,32.131,32.131,0,0,0,3.886.073c1.074,0,1.9-.073,1.9-.073s-.146-3.786-.347-8.03a115.83,115.83,0,0,0,12.923-1.057c7.415-1.309,10.518-8.108,11.665-11.732a33.914,33.914,0,0,1,.727,4.473,32.747,32.747,0,0,0,1.157,3.914,13.227,13.227,0,0,0,1.594,2.885c5.5-1.873,2.17-4.686,1.012-5.911s.794-2.237.794-2.237,1.521-1.012,1.376-1.952-.218-1.946,4.7-1.873S905.109,647.005,905.109,647.005Zm-76.351-46.06c.061.414.749,4.854,1.37,6.022a8.036,8.036,0,0,1,.162,2.377c-2.913-.229-5.95-.358-5.95-.358a.694.694,0,0,1,.157.375l-.458-.106c-.213-.05-.436-.1-.665-.162l5.368-8.159ZM818.133,617.86l5.033.8.425.067a16.914,16.914,0,0,0-.263,2.382c0,.073.112.162.274.268a6.54,6.54,0,0,0-.1,1.191c.078.4,2.438,1.264,5.145,1.979-.039.145-.078.28-.112.414h0c-2.388-1.258-6.151-1.845-6.587-2.8s-13.2-5.385-13.2-5.385-.47-.252-1.275-.637l3.355.637.928-.095a50.286,50.286,0,0,0,6.364,1.174Z" transform="translate(-39.383 -183.491)" fill="url(#linear-gradient)"/>
    <path id="Path_244" data-name="Path 244" d="M903.079,729.138s-2.007,12.106-12.185,13.9-44.142,1.432-44.142,1.432-19.421-2.8-26.444-19.2-11.536-22.927-5.519-23.223,38.483,10.966,40.345,11.111S904.868,688.217,903.079,729.138Z" transform="translate(-53.81 -262.487)" fill="#333"/>
    <path id="Path_246" data-name="Path 246" d="M811.711,760.131a4.652,4.652,0,0,0,3.8,2.863,4.9,4.9,0,0,0,1.225-.067c3.73-.649,12.47-2.153,15.551-1.577,1.857.341,5.284-.168,7.728-.626,1.622-.308,2.8-.593,2.8-.593s-2.863-9.506-3.227-9.819-12.895-7.829-12.895-7.829l-9.948-.693h0a5.25,5.25,0,0,0-3.355,1.979c-1.046,1.27-1.946,3.355-2.007,6.766C811.208,758.912,811.711,760.131,811.711,760.131Z" transform="translate(-53.528 -280.009)" fill="#333"/>
    <path id="Path_247" data-name="Path 247" d="M811.71,760.149a4.652,4.652,0,0,0,3.8,2.863,41.344,41.344,0,0,1-2.7-3.914l.05-6.951a12.241,12.241,0,0,1,3.914-10.317h-.039s-5.229.358-5.374,8.746S811.71,760.149,811.71,760.149Z" transform="translate(-53.527 -280.027)" opacity="0.05"/>
    <path id="Path_248" data-name="Path 248" d="M884.451,730.277l9.243-7.236,14.539-14.332s-1.571-.078-3.942-.179c-.559.375-2.237,1.555-2.3,2.992-.067,1.756-3.914.123-5.939,1.118s-11.8,13.577-13.521,13.488-3.081-.872-3.8.347l-.05.078Z" transform="translate(-83.21 -265.348)" opacity="0.1"/>
    <path id="Path_249" data-name="Path 249" d="M815,743.764c.33.157.665.313,1,.459,7.023,3.008,15.7,9.316,16.339,10.462.4.7,5.424,3.752,9.3,6.039,1.622-.308,2.8-.593,2.8-.593s-2.863-9.506-3.227-9.819-12.895-7.829-12.895-7.829l-9.965-.693h0A5.251,5.251,0,0,0,815,743.764Z" transform="translate(-55.139 -280.009)" opacity="0.1"/>
    <path id="Path_250" data-name="Path 250" d="M779.75,697.164c.934,2.293,8.746,11.106,8.746,11.106s4.943,6.453,11.967,9.461,15.691,9.316,16.339,10.462c.414.738,6.011,4.11,9.954,6.425l.884.514,1.957,1.118,1.034.6s2.4-1.929,4.792-3.87,4.7-3.836,4.742-3.914c.067-.213,1-2.651.783-2.8-.112-.073-.6-1.068-1.5-2.237a10.207,10.207,0,0,0-3.651-3.02,10.36,10.36,0,0,1-4.731-4.932s-.313-.224-.788-.526a9.559,9.559,0,0,0-3.226-1.437c-1.577-.2-4.513-3.422-4.513-3.422a8.861,8.861,0,0,1-2.8-2.936c-.788-1.644-11.866-9.2-12.895-9.914l26.942,17.307,6.448,4.143,9.249-7.236,14.539-14.332s-1.957-.1-4.8-.218c-7.074-.308-19.628-.788-21.216-.431a11.994,11.994,0,0,1-3.914.257,13.837,13.837,0,0,1-5.944-1.085c-2.365-1.247-6.1-1.834-6.526-2.757s-13.113-5.374-13.113-5.374-17.268-9.171-23.436-3.724S778.822,694.872,779.75,697.164Z" transform="translate(-39.411 -253.948)" fill="#555"/>
    <path id="Path_251" data-name="Path 251" d="M879.67,597.8l2.237,7.376,2.869,16.63,10.53.716,3.053-5.033,3.042-5.033s1.9-6.71,3.26-13.219c1.2-5.748,1.991-11.329.682-11.933-1.163-.559-1.929-2.477-2.427-4.557-.062-.257-.123-.52-.173-.777a41.314,41.314,0,0,1-.7-5.346s-22.071-1.146-19.012,7.957a14.436,14.436,0,0,1,.833,4.837,12.187,12.187,0,0,1-.078,1.23A10.317,10.317,0,0,1,879.67,597.8Z" transform="translate(-83.647 -207.181)" fill="#efefef"/>
    <path id="Path_252" data-name="Path 252" d="M871.46,607.642l.794,12.537,1.789,10.68,2.007,4.943,1.789,27.053s17.279,2,21.484-.034a1.863,1.863,0,0,0,.76-.6c5.072-7.661,3.411-29.861,3.411-29.861l1.935-14.332-1.292-7.437-3.115-.336-2.4-.252s-.559.665-1.325,1.677c-2.125,2.8-6.034,8.321-5.771,10.625.358,3.154-.431,6.375-1.678,6.878s-2.237,1.364-2.432.5a4.057,4.057,0,0,1-.218-2.293c.213-1.219-.934-4.949-.934-4.949s-1.935-4.367-1.789-6.235-.213-4.009-.789-4.513-1.359-1-.716-3.294-2.824-6.738-2.824-6.738Z" transform="translate(-80.028 -218.243)" fill="#555"/>
    <path id="Path_253" data-name="Path 253" d="M912.258,632.623l.721,21.428,4.138,2.293a1.9,1.9,0,0,0,.761-.593c5.072-7.667,3.411-29.866,3.411-29.866l1.935-14.332-1.292-7.437-3.115-.335c1.2-5.748,1.991-11.329.682-11.933-1.163-.559-1.929-2.477-2.427-4.557h0l-2.237,15.16s.185,1.37.252,2.8a7.972,7.972,0,0,1-.179,2.667,8.9,8.9,0,0,0-.146,3.584c-1.292,2.276-1.94,6.492-2.237,10.563C912.1,627.462,912.258,632.623,912.258,632.623Z" transform="translate(-97.999 -211.904)" opacity="0.1"/>
    <path id="Path_254" data-name="Path 254" d="M917.449,586.68s3.612.447,4.759,1.957,4.155,1.717,4.155,1.717,3.439,1.118,3.355,1.432,1,.721,3.148,1.292,5.737,2.651,5.737,3.154,5.687,6.09,5.687,6.666,1.722,2.723,1.5,6.52-.431,8.6.431,9.389,0,3.87,0,3.87a2.114,2.114,0,0,0-.073,2.293c.716,1.292-.14,6.666-.14,6.666l.067,5.592s-.788,3.512.145,3.657-.145,1.722-.145,1.722-.788,2.863.218,4.155,1.292,6.805,1.292,6.805l15.333,22.289s.218,4.082-4.658,4.015-4.8.928-4.658,1.862-1.359,1.935-1.359,1.935-1.935,1-.788,2.237,4.44,4.015-1.007,5.877a13.289,13.289,0,0,1-1.577-2.869,32.434,32.434,0,0,1-1.146-3.87s-.5-5.446-1.5-6.151-.861-4.155-.861-4.155,1.437-2.8-.559-3.942-31.1-17.273-31.1-17.273l-.727-21.456s-.5-15.836,2.505-21.143a8.9,8.9,0,0,1,.145-3.584c.5-1.292-.073-5.447-.073-5.447Z" transform="translate(-98.314 -211.635)" fill="#333"/>
    <path id="Path_255" data-name="Path 255" d="M866.794,601.405s-7.208-1.487-9.143-.481-5.732,1.789-6.308,2.365-2,.14-3.294,3.512-1.432,6.805-3.081,8.388-2.511,2.651-2.583,3.8.218,1.431-.425,1.795-1.577,1.862-1.292,2.432,14.9,13.186,14.9,13.186.721,4.8,1.364,6.022-.716,17.983-2.147,19.135,9.674,1.04,9.674,1.04.5-11,.928-11.575-.285-12.3-.285-12.3-.073-10.032.861-12.682.828-11.463.828-11.463.822-5.29,1.823-6.526S866.794,601.405,866.794,601.405Z" transform="translate(-66.431 -217.76)" opacity="0.1"/>
    <path id="Path_256" data-name="Path 256" d="M866.381,601.017s-7.2-1.482-9.137-.481-5.715,1.784-6.285,2.343-2.008.145-3.3,3.512-1.432,6.811-3.081,8.388-2.505,2.651-2.578,3.8.213,1.432-.431,1.789-1.577,1.862-1.292,2.438S855.2,636.011,855.2,636.011s.716,4.8,1.365,6.017-.721,17.989-2.153,19.135,9.674,1.04,9.674,1.04.5-11,.934-11.575-.291-12.3-.291-12.3-.067-10.032.861-12.682.794-11.491.794-11.491.822-5.29,1.823-6.52S866.381,601.017,866.381,601.017Z" transform="translate(-66.259 -217.59)" fill="#333"/>
    <path id="Path_257" data-name="Path 257" d="M885.458,584.511a14.442,14.442,0,0,1,.833,4.837,16.418,16.418,0,0,0,18.856-7.448,41.312,41.312,0,0,1-.7-5.346S882.376,575.407,885.458,584.511Z" transform="translate(-86.068 -207.151)" opacity="0.1"/>
    <path id="Path_258" data-name="Path 258" d="M866.21,557.629a16.412,16.412,0,1,0,.358-3.411,16.412,16.412,0,0,0-.358,3.411Z" transform="translate(-77.713 -191.592)" fill="#efefef"/>
    <path id="Path_259" data-name="Path 259" d="M836.037,638.49l-3.914,1.219a2.029,2.029,0,0,1-.788,2.147,2.4,2.4,0,0,0-1,2.153s-.431,1.577-1.431,1.935-1.65,2.723-1.65,2.723l-3.3,3.8s-1.213,1-1,1.5-1.292.643-1.292.643l.749,12.761,6.811,1.286,4.227-.431,3.439-1.286,3.008-1.795,1.365-3.512,6.017-9.171Z" transform="translate(-58.075 -234.473)" fill="#333"/>
    <path id="Path_260" data-name="Path 260" d="M809.56,662.954s-8.746-12.615-15.266-5.8,2.651,17.844,4.8,17.486,12.4-.934,12.4-.934Z" transform="translate(-44.997 -241.809)" fill="#ee8e9e"/>
    <rect id="Rectangle_113" data-name="Rectangle 113" width="45.758" height="35.531" rx="1.54" transform="translate(745.46 395.446) rotate(27.04)" fill="#333"/>
    <rect id="Rectangle_114" data-name="Rectangle 114" width="38.461" height="28.983" transform="translate(747.279 399.972) rotate(27.04)" fill="#555"/>
    <circle id="Ellipse_152" data-name="Ellipse 152" cx="0.632" cy="0.632" r="0.632" transform="translate(738.762 411.555)" fill="#e6e8ec"/>
    <circle id="Ellipse_153" data-name="Ellipse 153" cx="1.04" cy="1.04" r="1.04" transform="translate(775.434 430.142)" fill="#e6e8ec"/>
    <path id="Path_261" data-name="Path 261" d="M813.28,670.357c-.067,9.461,19.493,11.463,19.493,11.463l5,.794,2.237.358.934-9.249s-1.023-.151-2.3-.447c-1.9-.442-4.351-1.208-4.865-2.276C832.919,669.211,813.353,660.9,813.28,670.357Z" transform="translate(-54.381 -246.562)" fill="#efefef"/>
    <path id="Path_262" data-name="Path 262" d="M866.85,554.25a1.907,1.907,0,0,1,1.2.559c.559.587.559,1.627,1.3,1.985a1.444,1.444,0,0,0,.855.1c1.907-.268,3.009-2.421,4.837-3.014a4.849,4.849,0,0,1,3.2.28,2.338,2.338,0,0,1,1.063.677c.615.794.185,1.963.47,2.919.391,1.331,1.979,1.862,3.355,2.035s2.925.268,3.847,1.309a3.506,3.506,0,0,1,.682,2.8,2.187,2.187,0,0,0,0,1.023c.38,1.079,2.237.917,2.723.067.358-.615.252-1.118,1.085-1.3a3.533,3.533,0,0,1,1.756.3,12.906,12.906,0,0,0,4.535.693,16.412,16.412,0,1,0-30.906-10.39Z" transform="translate(-77.996 -191.624)" opacity="0.1"/>
    <path id="Path_263" data-name="Path 263" d="M884.476,557.511a2.237,2.237,0,0,1,0-1.029,3.506,3.506,0,0,0-.682-2.8c-.923-1.04-2.472-1.118-3.847-1.308s-2.964-.7-3.355-2.035c-.285-.956.145-2.125-.47-2.913a2.315,2.315,0,0,0-1.062-.682,4.849,4.849,0,0,0-3.2-.28c-1.829.593-2.93,2.746-4.837,3.014a1.442,1.442,0,0,1-.856-.1c-.721-.358-.749-1.4-1.3-1.985-.872-.923-2.522-.324-3.59-1.012a3.322,3.322,0,0,1-1.157-2.119,10.333,10.333,0,0,1-.313-4.753c.621-2.667,3-4.474,4.524-6.772,1.42-2.119,2.237-4.8,4.345-6.213s4.865-1.085,7.269-.369a21.178,21.178,0,0,0,3.406.889c1.935.24,3.881-.285,5.832-.352a12.559,12.559,0,0,1,7.7,2.337,4.273,4.273,0,0,1,1.258,1.275,6.428,6.428,0,0,1,.559,2.281,11.639,11.639,0,0,0,1.515,4.194c.6,1.007,1.359,1.918,1.9,2.964a4.573,4.573,0,0,1,.515,3.394c-.184.587-.559,1.118-.688,1.728-.319,1.4.6,2.734,1.236,4.026a7.577,7.577,0,0,1,.839,3.819,4.814,4.814,0,0,1-1.722,3.433,6.15,6.15,0,0,1-3.629,1.118,12.86,12.86,0,0,1-4.625-.71,3.534,3.534,0,0,0-1.756-.3c-.833.168-.727.682-1.085,1.3C886.712,558.422,884.856,558.585,884.476,557.511Z" transform="translate(-74.814 -184.686)" fill="#333"/>
    <path id="Path_264" data-name="Path 264" d="M883.15,731.016l9.249-7.236,14.539-14.332s-1.957-.1-4.8-.218a3.148,3.148,0,0,0-1.018,1.957c-.067,1.75-3.914.123-5.939,1.118s-11.816,13.571-13.538,13.493-3.081-.872-3.8.347l-.05.078a2.058,2.058,0,0,1-1.118.649Z" transform="translate(-82.329 -265.656)" opacity="0.1"/>
    <path id="Path_265" data-name="Path 265" d="M854.93,726.61l4.647,14.83.727,2.326,2.237-.6,4.876-1.342,21.719-5.966a18.8,18.8,0,0,0,7.829-2.086,23.732,23.732,0,0,1,13.5-2.941c2.869.268,6.062-.967,8.712-5.866,0,0,6.017-17.771-9.176-22.859s-15.915,2.706-15.915,2.706l-.207.129c-.559.375-2.237,1.554-2.3,2.992-.067,1.756-3.914.123-5.939,1.118s-11.855,13.577-13.577,13.488-3.081-.872-3.8.347l-.05.078c-.531.733-2.13.9-3.182.934h-1l-.134.039-1.118.33Z" transform="translate(-72.741 -261.754)" fill="#555"/>
    <path id="Path_266" data-name="Path 266" d="M857.08,688.418l2.237.358.934-9.249s-1.023-.151-2.3-.447C858.282,680.366,857.516,685.354,857.08,688.418Z" transform="translate(-73.689 -252.366)" opacity="0.1"/>
    <path id="Path_267" data-name="Path 267" d="M915.945,618.356s6.666-1.935,5.033,16.988A52.743,52.743,0,0,1,907,666.228s-14.187,6.235-20.567,5.234a110.866,110.866,0,0,0-11.033-1.219,16.216,16.216,0,0,0-6.453-1.722c-3.579-.14-11.105-2.365-11.251-3.081s1.868-11.251,1.006-12.039c0,0,10.032.414,11.033,1.118s2.438.207,3.512,0,4.373-3.07,10.893-.559c0,0,2.237.213,3.081-.358a3.088,3.088,0,0,1,2.237-.145,6.422,6.422,0,0,0,1.56-.789c.213-.285,1.935,0,1.935,0a.76.76,0,0,0,1.074-.5,4.664,4.664,0,0,1,1-1.577s1.935-10.893,5.592-14.975a2.343,2.343,0,0,0,.788-2.08C901.121,632.386,907.344,616.064,915.945,618.356Z" transform="translate(-73.956 -225.501)" opacity="0.1"/>
    <path id="Path_268" data-name="Path 268" d="M915.617,615.756s6.666-1.935,5.033,16.988a52.743,52.743,0,0,1-13.98,30.884s-14.192,6.235-20.567,5.234-11.061-1.219-11.061-1.219a16.217,16.217,0,0,0-6.448-1.722c-3.584-.14-11.105-2.365-11.251-3.081s1.862-11.251,1-12.039c0,0,10.032.414,11.038,1.118s2.438.2,3.512,0,4.373-3.075,10.893-.559c0,0,2.237.213,3.081-.358a3.087,3.087,0,0,1,2.237-.145,6.313,6.313,0,0,0,1.555-.788c.213-.285,1.935,0,1.935,0a.76.76,0,0,0,1.074-.5,4.8,4.8,0,0,1,1.007-1.577s1.935-10.893,5.592-14.975a2.328,2.328,0,0,0,.788-2.08C900.765,629.786,907.017,613.464,915.617,615.756Z" transform="translate(-73.802 -224.355)" fill="#333"/>
    <path id="Path_269" data-name="Path 269" d="M869,742.816l9.461,11.452c.039-.034.062-.056.062-.067.073-.213,1-2.651.788-2.8s-1.862-3.73-5.161-5.234a9.781,9.781,0,0,1-4.049-3.691Z" transform="translate(-78.943 -280.313)" opacity="0.1"/>
    <path id="Path_270" data-name="Path 270" d="M869.069,768.551l1.035.6s2.4-1.929,4.792-3.87,4.7-3.836,4.742-3.914c.067-.212,1-2.651.783-2.8-.112-.073-.6-1.068-1.5-2.237-6.419-1.8-2.332,2.656-1.789,2.857,0,0-7.829-1.789-8.243,6.71A10.065,10.065,0,0,0,869.069,768.551Z" transform="translate(-78.883 -286.232)" opacity="0.1"/>
    <path id="Path_271" data-name="Path 271" d="M877.518,772.184l1.364.788,13.829.358a27.956,27.956,0,0,0,4.9,2.354,4.277,4.277,0,0,0,.693.157,32.723,32.723,0,0,0,3.853.073c1.063,0,1.879-.073,1.879-.073s-.654-17.447-1.118-19.281c-.235-.878-1.4-.682-2.539-.246a16.784,16.784,0,0,0-2.477,1.253s-5.877.559-6.811,1.079-3.579-.291-5.228,0-4.585-1.94-4.585-1.94c-8.03-2.651-3.512,2.293-2.941,2.505,0,0-7.829-1.789-8.237,6.71S877.518,772.184,877.518,772.184Z" transform="translate(-79.421 -286.241)" fill="#333"/>
    <path id="Path_272" data-name="Path 272" d="M919.135,765.43c.151,3.612,2.964,8.1,4.641,10.468,1.063,0,1.879-.073,1.879-.073s-.654-17.447-1.118-19.281c-.235-.878-1.4-.682-2.539-.246C920.583,758.9,919.012,762.522,919.135,765.43Z" transform="translate(-101.04 -286.242)" fill="#555"/>
    <path id="Path_275" data-name="Path 275" d="M829.58,710.55s6.872,2.237,12.694,10.155Z" transform="translate(-61.567 -266.238)" opacity="0.1"/>
    <g id="Group_28" data-name="Group 28" transform="translate(784.805 353.399)" opacity="0.1">
      <path id="Path_276" data-name="Path 276" d="M929.19,556.77a.228.228,0,0,1-.039.157,6.057,6.057,0,0,1-.24.6A4.534,4.534,0,0,1,929.19,556.77Z" transform="translate(-890.157 -551.849)"/>
      <path id="Path_277" data-name="Path 277" d="M859.771,549.418a6.705,6.705,0,0,1,.559-1.448c-.039.123-.073.246-.106.375a10.3,10.3,0,0,0,.319,4.747,3.321,3.321,0,0,0,1.157,2.125c1.068.682,2.718.089,3.59,1.012.559.559.559,1.627,1.3,1.985a1.442,1.442,0,0,0,.856.1c1.9-.268,3.008-2.421,4.837-3.014a4.847,4.847,0,0,1,3.2.28,2.331,2.331,0,0,1,1.063.682c.609.788.185,1.957.464,2.913.4,1.331,1.985,1.856,3.355,2.035s2.925.268,3.847,1.309a3.506,3.506,0,0,1,.682,2.8,2.116,2.116,0,0,0,0,1.023c.38,1.074,2.237.917,2.723.067.358-.615.246-1.118,1.085-1.3a3.6,3.6,0,0,1,1.756.307,13,13,0,0,0,4.63.693,6.151,6.151,0,0,0,3.629-1.118,4.213,4.213,0,0,0,1.118-1.353,4.59,4.59,0,0,1-1.549,2.427,6.15,6.15,0,0,1-3.629,1.118,12.864,12.864,0,0,1-4.641-.738,3.532,3.532,0,0,0-1.756-.3c-.833.168-.727.682-1.085,1.3-.486.85-2.343,1.012-2.723-.062a2.237,2.237,0,0,1,0-1.029,3.506,3.506,0,0,0-.682-2.8c-.923-1.04-2.472-1.118-3.847-1.309s-2.964-.7-3.355-2.035c-.285-.956.145-2.125-.47-2.913a2.343,2.343,0,0,0-1.062-.682,4.849,4.849,0,0,0-3.2-.28c-1.829.593-2.936,2.746-4.837,3.014a1.444,1.444,0,0,1-.856-.1c-.721-.358-.749-1.4-1.3-1.985-.872-.923-2.522-.324-3.59-1.012a3.322,3.322,0,0,1-1.158-2.119A10.031,10.031,0,0,1,859.771,549.418Z" transform="translate(-859.608 -547.97)"/>
    </g>
    <path id="Path_278" data-name="Path 278" d="M926.861,650.413c-1.314,1.773-2.8,3.411-3.976,5.284a9.943,9.943,0,0,0-1.739,6.257c1.2-1.23,1.75-2.936,2.511-4.474,1.281-2.617,3.2-4.837,4.82-7.269.307-.459,2.287-3.115,1.286-3.243C928.936,646.873,927.309,649.809,926.861,650.413Z" transform="translate(-101.911 -238.21)" opacity="0.1"/>
  </g>
</svg>
