<svg xmlns="http://www.w3.org/2000/svg" xmlns:xlink="http://www.w3.org/1999/xlink" width="589" height="468.257" viewBox="0 0 589 468.257">
  <defs>
    <linearGradient id="linear-gradient" x1="0.5" y1="1" x2="0.5" gradientUnits="objectBoundingBox">
      <stop offset="0" stop-color="gray" stop-opacity="0.251"/>
      <stop offset="0.54" stop-color="gray" stop-opacity="0.122"/>
      <stop offset="1" stop-color="gray" stop-opacity="0.102"/>
    </linearGradient>
  </defs>
  <g id="Group_26" data-name="Group 26" transform="translate(-554 -213)">
    <path id="Path_1" data-name="Path 1" d="M439.651,133.588c-37.269-1.3-72.77-13.325-106.664-26.489s-67.466-27.75-103.842-34.724c-23.4-4.486-50.156-5.119-69,7.423-18.145,12.093-24.007,32.91-27.157,52.247-2.372,14.546-3.766,29.852,2.735,43.471,4.509,9.455,12.519,17.4,18.053,26.489,19.274,31.51,5.655,70.368-15.231,101.136-9.789,14.436-21.162,28.216-28.717,43.569s-11.056,32.967-4.446,48.642c6.559,15.548,22.182,27.2,39.1,35.409,34.372,16.671,74.86,21.439,114.369,24.139,87.431,5.983,175.322,3.392,262.983.8,32.443-.962,65.025-1.935,96.938-6.95,17.725-2.787,36.019-7.2,48.889-17.88,16.331-13.55,20.379-36.5,9.438-53.485-18.364-28.5-69.1-35.576-81.954-66.165-7.06-16.832.2-35.582,10.457-51.2,22.02-33.491,58.926-62.877,60.873-101.159,1.336-26.3-16.412-52.627-43.845-65.071C593.874,80.7,553.991,82.361,532.788,103.95,510.941,126.195,472.555,134.729,439.651,133.588Z" transform="translate(459.776 158.54)" fill="#ff6b6b" opacity="0.1"/>
    <path id="Path_2" data-name="Path 2" d="M275.845,566.469l-197.1-.962L59.16,519.572l69.251-5.027-12.07-50.364,136.971-17.753-131.161-45.6,11.586-2.753,210.9,34.407-11.615,78.6-16.6,43.194Z" transform="translate(528.907 44.149)" fill="#ff6b6b"/>
    <path id="Path_3" data-name="Path 3" d="M187,698.7s12.093-1.935,19.348,6.611c0,0-5.321,4.192-16.769-1.612Z" transform="translate(423.675 -108.285)" fill="#ff6b6b"/>
    <path id="Path_4" data-name="Path 4" d="M181.141,698.51s-7.716,9.5-3.916,20.068c0,0,6.288-2.516,6.973-15.335Z" transform="translate(428.267 -108.283)" fill="#ff6b6b"/>
    <path id="Path_5" data-name="Path 5" d="M172.76,669.138s4.837-8.874,24.186,3.547c0,0-2.58,5.966-11.125,5.482S175.017,673.814,172.76,669.138Z" transform="translate(429.715 -94.522)" fill="#ff6b6b"/>
    <path id="Path_6" data-name="Path 6" d="M162.48,670.283s-10.037-1.152-11.01,21.825c0,0,6.363,1.319,10.883-5.948S165.02,674.815,162.48,670.283Z" transform="translate(438.745 -96.306)" fill="#ff6b6b"/>
    <path id="Path_7" data-name="Path 7" d="M160.44,632.192s5.643-15.64,26.12-4.515c0,0-4.676,14.35-24.024,9.835Z" transform="translate(434.94 -76.544)" fill="#ff6b6b"/>
    <path id="Path_8" data-name="Path 8" d="M149.52,592.426s10.642-15.8,29.506-1.152c0,0-6.611,14.834-27.894,6.772Z" transform="translate(439.572 -60.158)" fill="#ff6b6b"/>
    <path id="Path_9" data-name="Path 9" d="M145.6,554.468s12.415-14.517,31.1,0c0,0-11.77,12.738-31.1,3.708Z" transform="translate(441.235 -44.45)" fill="#ff6b6b"/>
    <path id="Path_10" data-name="Path 10" d="M142.24,516.548s12.576-15.156,30.474-.806c0,0-14.189,13.383-30.474,4.353Z" transform="translate(442.66 -28.142)" fill="#ff6b6b"/>
    <path id="Path_11" data-name="Path 11" d="M144.2,480.353s13.244-19.51,29.99-6.288c0,0-14.189,16.769-29.99,10Z" transform="translate(441.829 -11.135)" fill="#ff6b6b"/>
    <path id="Path_12" data-name="Path 12" d="M149.52,442s14.028-19.348,30.313-4.515c0,0-16.607,16.769-30.313,8.062Z" transform="translate(439.572 4.804)" fill="#ff6b6b"/>
    <path id="Path_13" data-name="Path 13" d="M157.106,405.345s16.607-18.185,31.1-10.941c0,0-17.3,19.314-31.821,15.767Z" transform="translate(436.662 21.428)" fill="#ff6b6b"/>
    <path id="Path_14" data-name="Path 14" d="M166.719,369.634s19.164-22.274,30.313-14.834c0,0-14.12,17.275-31.672,19Z" transform="translate(432.853 38.148)" fill="#ff6b6b"/>
    <path id="Path_15" data-name="Path 15" d="M180.612,332.83s16.774-18.185,29.028-13.671c0,0-14.35,18.865-31.28,19.348Z" transform="translate(427.339 52.925)" fill="#ff6b6b"/>
    <path id="Path_16" data-name="Path 16" d="M194.846,296.814s18.542-17.414,26.6-14.35c0,0-13.383,19.348-27.41,18.22Z" transform="translate(420.689 68.338)" fill="#ff6b6b"/>
    <path id="Path_17" data-name="Path 17" d="M208.32,260.407S224.282,239.6,233,241.214c0,0-9.68,18.548-24.675,21.306Z" transform="translate(414.632 85.718)" fill="#ff6b6b"/>
    <path id="Path_18" data-name="Path 18" d="M221.872,218.341S235.98,202.4,243.6,202.43c0,0-11.137,21.306-22.314,21.111Z" transform="translate(409.131 102.131)" fill="#ff6b6b"/>
    <path id="Path_19" data-name="Path 19" d="M229.3,175.935l13.63-33.215s.68,30.025-15.364,39.376Z" transform="translate(406.467 127.457)" fill="#ff6b6b"/>
    <path id="Path_20" data-name="Path 20" d="M240.122,114.7s2.257-27.739.806-30c0,0,9.743,23.063-.9,42.25Z" transform="translate(401.182 152.067)" fill="#ff6b6b"/>
    <path id="Path_21" data-name="Path 21" d="M142.371,636.515s-14.131-8.759-23.281,12.669c0,0,12.576,8.35,24.946-7.2Z" transform="translate(452.479 -81.236)" fill="#ff6b6b"/>
    <path id="Path_22" data-name="Path 22" d="M129.77,595.311s-17.333-7.906-25.74,14.465c0,0,13.388,9.214,27.318-8.81Z" transform="translate(458.867 -63.936)" fill="#ff6b6b"/>
    <path id="Path_23" data-name="Path 23" d="M121.3,556.778s-12.415-14.517-31.1,0c0,0,11.77,12.738,31.1,3.708Z" transform="translate(464.733 -45.43)" fill="#ff6b6b"/>
    <path id="Path_24" data-name="Path 24" d="M119.054,516.548s-12.576-15.156-30.474-.806c0,0,14.189,13.383,30.474,4.353Z" transform="translate(465.42 -28.142)" fill="#ff6b6b"/>
    <path id="Path_25" data-name="Path 25" d="M123.578,478.426s-8.822-21.853-28-12.456c0,0,10.365,19.377,27.215,16.083Z" transform="translate(462.451 -8.655)" fill="#ff6b6b"/>
    <path id="Path_26" data-name="Path 26" d="M130.666,438.467s-8.77-22.233-28.216-11.926c0,0,11.909,20.379,27.353,15.358Z" transform="translate(459.537 8.23)" fill="#ff6b6b"/>
    <path id="Path_27" data-name="Path 27" d="M146.469,395.288s-3.455-24.376-19.579-26.558c0,0,3.421,25.706,17.408,30.952Z" transform="translate(449.171 31.594)" fill="#ff6b6b"/>
    <path id="Path_28" data-name="Path 28" d="M157.618,359.373s-1.347-29.368-14.678-30.393c0,0,.449,22.291,13.175,34.551Z" transform="translate(442.363 48.454)" fill="#ff6b6b"/>
    <path id="Path_29" data-name="Path 29" d="M172.37,321.815s-3.973-24.422-16.7-27.4c0,0,1.578,23.65,15.438,33.4Z" transform="translate(436.964 63.117)" fill="#ff6b6b"/>
    <path id="Path_30" data-name="Path 30" d="M191.421,286.508s-.132-25.441-7.906-29.178c0,0-4.82,23.034,5.655,32.426Z" transform="translate(425.623 78.845)" fill="#ff6b6b"/>
    <path id="Path_31" data-name="Path 31" d="M202.384,252.1s-1.088-26.2-9.139-29.886c0,0-2.753,20.73,7.935,31.6Z" transform="translate(421.161 93.741)" fill="#ff6b6b"/>
    <path id="Path_32" data-name="Path 32" d="M218.6,214.315s-.046-21.306-5.793-26.3c0,0-5.712,23.339,2.793,30.589Z" transform="translate(413.525 108.247)" fill="#ff6b6b"/>
    <path id="Path_33" data-name="Path 33" d="M223.718,172.461,218.126,137s-7.6,29.057,5.856,41.864Z" transform="translate(411.379 129.883)" fill="#ff6b6b"/>
    <path id="Path_34" data-name="Path 34" d="M220.943,117.859s-14.35-23.84-14.056-26.489c0,0,1.526,24.986,19.579,37.43Z" transform="translate(415.242 149.238)" fill="#ff6b6b"/>
    <path id="Path_35" data-name="Path 35" d="M219.731,98.181s-13.544-33.86-19.671-36.6c0,0,19.348,9.835,20.8,35.633Z" transform="translate(418.135 161.873)" fill="#ff6b6b"/>
    <path id="Path_36" data-name="Path 36" d="M220.487,189.364l-.927-.282c11.431-37.275,14.281-61.04,8.033-67l.662-.7C234.883,127.668,232.194,151.174,220.487,189.364Z" transform="translate(409.864 136.509)" fill="#444053"/>
    <path id="Path_37" data-name="Path 37" d="M165.5,324.709l-1.371-.489c1.215-3.415,2.522-6.881,3.893-10.3,11.932-29.737,22.089-57.4,28.6-78.638l1.192-.576c-6.524,21.278-16.5,50-28.447,79.778C168.005,317.839,166.7,321.289,165.5,324.709Z" transform="translate(433.375 88.439)" fill="#444053"/>
    <path id="Path_38" data-name="Path 38" d="M184.039,593.779c-.184-.2-18.709-21.064-31.625-56.681a209.711,209.711,0,0,1-12.479-64.944c-.887-27.716,4.929-58.661,14.891-86.774l1.083,1.267c-22.366,63.1-13.481,117.162-1.693,149.72,12.778,35.294,31.1,55.926,31.274,56.133Z" transform="translate(443.675 24.532)" fill="#444053"/>
    <path id="Path_39" data-name="Path 39" d="M629.8,670.36s-13.054,15.934-2.689,40.021l-104.228,45.2-10,2.1-4.607-20.155,3.081-25.435v-13.9Z" transform="translate(287.407 -96.343)" fill="#d5d6db"/>
    <path id="Path_40" data-name="Path 40" d="M59.16,589.689l144.261-26.3,191.152,30.451L275.845,636.586Z" transform="translate(528.907 -25.968)" fill="#ff6b6b"/>
    <path id="Path_41" data-name="Path 41" d="M59.16,589.689l144.261-26.3,191.152,30.451L275.845,636.586Z" transform="translate(528.907 -25.968)" fill="#ff6b6b"/>
    <path id="Path_42" data-name="Path 42" d="M143.74,652.47s-13.492,25.562,2.056,49.172L359.723,748s-13.279-20.362.685-48.624Z" transform="translate(444.327 -88.755)" fill="#ff6b6b"/>
    <path id="Path_43" data-name="Path 43" d="M143.74,652.47s-13.492,25.562,2.056,49.172L359.723,748s-13.279-20.362.685-48.624Z" transform="translate(444.327 -88.755)" opacity="0.1"/>
    <path id="Path_44" data-name="Path 44" d="M156.286,667.86s-7.711,18.7,0,30.808" transform="translate(438.156 -95.283)" opacity="0.1"/>
    <path id="Path_45" data-name="Path 45" d="M365.237,780.822,484.667,729.86s6.68,1.44,2.361,6.334S367.54,785.717,367.54,785.717l-216.23-51.25Z" transform="translate(438.813 -121.58)" fill="#ff6b6b"/>
    <path id="Path_46" data-name="Path 46" d="M365.237,780.822,484.667,729.86s6.68,1.44,2.361,6.334S367.54,785.717,367.54,785.717l-216.23-51.25Z" transform="translate(438.813 -121.58)" opacity="0.1"/>
    <path id="Path_47" data-name="Path 47" d="M502.04,742.86s-11.517,13.82,0,34.551" transform="translate(292.221 -127.094)" opacity="0.1"/>
    <rect id="Rectangle_23" data-name="Rectangle 23" width="54.458" height="0.576" transform="translate(798.361 632.766) rotate(-18.45)" opacity="0.1"/>
    <rect id="Rectangle_24" data-name="Rectangle 24" width="66.355" height="0.576" transform="translate(798.341 637.402) rotate(-20.82)" opacity="0.1"/>
    <rect id="Rectangle_25" data-name="Rectangle 25" width="76.91" height="0.576" transform="translate(798.688 642.867) rotate(-22.26)" opacity="0.1"/>
    <rect id="Rectangle_26" data-name="Rectangle 26" width="88.531" height="0.576" transform="translate(799.518 647.686) rotate(-24.31)" opacity="0.1"/>
    <rect id="Rectangle_27" data-name="Rectangle 27" width="96.829" height="0.576" transform="matrix(0.916, -0.401, 0.401, 0.916, 800.158, 650.031)" opacity="0.1"/>
    <rect id="Rectangle_28" data-name="Rectangle 28" width="115.872" height="0.576" transform="translate(801.497 653.969) rotate(-23.36)" opacity="0.1"/>
    <path id="Path_48" data-name="Path 48" d="M152.23,598.246,253.579,576.94l61.742,11.8-83.049,26.777Z" transform="translate(489.431 -31.715)" fill="#fff" opacity="0.3"/>
    <path id="Path_49" data-name="Path 49" d="M642.745,659.69s5.24,2.113,2.165,5.378S524,702.435,524,702.435Z" transform="translate(280.735 -91.817)" fill="#ff6b6b"/>
    <path id="Path_50" data-name="Path 50" d="M729.091,574.18s-13.049,15.928-2.683,40.021l-104.228,45.2-10,2.108-4.607-20.155,3.127-25.429V602.011Z" transform="translate(245.289 -55.548)" fill="#d5d6db"/>
    <path id="Path_51" data-name="Path 51" d="M158.46,493.5,302.715,467.21l191.158,30.451L375.145,540.406Z" transform="translate(486.789 14.827)" fill="#586ba4"/>
    <path id="Path_52" data-name="Path 52" d="M243,556.29s-13.5,25.562,2.05,49.172l213.927,46.356s-13.273-20.379.708-48.63Z" transform="translate(402.229 -47.96)" fill="#586ba4"/>
    <path id="Path_53" data-name="Path 53" d="M243,556.29s-13.5,25.562,2.05,49.172l213.927,46.356s-13.273-20.379.708-48.63l-67.65-14.644Z" transform="translate(402.229 -47.96)" opacity="0.1"/>
    <path id="Path_54" data-name="Path 54" d="M255.578,571.68s-7.7,18.7,0,30.808" transform="translate(396.04 -54.488)" opacity="0.1"/>
    <path id="Path_55" data-name="Path 55" d="M464.527,684.642,583.963,633.68s6.674,1.44,2.355,6.334S466.83,689.537,466.83,689.537L250.6,638.287Z" transform="translate(396.699 -80.785)" fill="#586ba4"/>
    <path id="Path_56" data-name="Path 56" d="M464.527,684.642,583.963,633.68s6.674,1.44,2.355,6.334S466.83,689.537,466.83,689.537L250.6,638.287Z" transform="translate(396.699 -80.785)" opacity="0.1"/>
    <path id="Path_57" data-name="Path 57" d="M601.33,646.68s-11.517,13.82,0,34.551" transform="translate(250.106 -86.299)" opacity="0.1"/>
    <rect id="Rectangle_29" data-name="Rectangle 29" width="54.458" height="0.576" transform="translate(855.541 577.387) rotate(-18.45)" opacity="0.1"/>
    <rect id="Rectangle_30" data-name="Rectangle 30" width="66.355" height="0.576" transform="translate(855.529 582.021) rotate(-20.82)" opacity="0.1"/>
    <rect id="Rectangle_31" data-name="Rectangle 31" width="76.91" height="0.576" transform="translate(855.867 587.478) rotate(-22.26)" opacity="0.1"/>
    <rect id="Rectangle_32" data-name="Rectangle 32" width="88.531" height="0.576" transform="translate(856.704 592.297) rotate(-24.31)" opacity="0.1"/>
    <rect id="Rectangle_33" data-name="Rectangle 33" width="96.829" height="0.576" transform="matrix(0.916, -0.401, 0.401, 0.916, 857.336, 594.635)" opacity="0.1"/>
    <rect id="Rectangle_34" data-name="Rectangle 34" width="115.872" height="0.576" transform="translate(858.679 598.573) rotate(-23.36)" opacity="0.1"/>
    <path id="Path_58" data-name="Path 58" d="M251.53,502.066,352.879,480.76l61.742,11.8-83.049,26.777Z" transform="translate(447.313 9.08)" fill="#fff" opacity="0.45"/>
    <path id="Path_59" data-name="Path 59" d="M742.058,563.51s5.234,2.113,2.165,5.373S623.33,606.249,623.33,606.249Z" transform="translate(238.604 -51.022)" fill="#586ba4"/>
    <path id="Path_60" data-name="Path 60" d="M738.5,464.15s-13.054,28.6-2.689,52.69L631.586,549.375l-9.979,2.113L617,531.334l3.081-25.435V491.981Z" transform="translate(241.289 -8.878)" fill="#d5d6db"/>
    <path id="Path_61" data-name="Path 61" d="M167.89,383.479l144.261-26.3,191.158,30.451L384.575,430.376Z" transform="translate(482.789 61.497)" fill="#ff6b6b"/>
    <path id="Path_62" data-name="Path 62" d="M252.458,446.26s-13.515,25.562,2.033,49.172l213.927,46.356s-13.279-20.379.7-48.624Z" transform="translate(398.221 -1.29)" fill="#ff6b6b"/>
    <path id="Path_63" data-name="Path 63" d="M252.458,446.26s-13.515,25.562,2.033,49.172l213.927,46.356s-13.279-20.379.7-48.624Z" transform="translate(398.221 -1.29)" opacity="0.1"/>
    <path id="Path_64" data-name="Path 64" d="M265.016,461.65s-7.711,18.7,0,30.808" transform="translate(392.038 -7.818)" opacity="0.1"/>
    <path id="Path_65" data-name="Path 65" d="M473.967,578.006,593.4,539.712s6.68,1.44,2.361,6.334S476.27,582.9,476.27,582.9L260.04,531.65Z" transform="translate(392.695 -37.509)" fill="#ff6b6b"/>
    <path id="Path_66" data-name="Path 66" d="M473.967,578.006,593.4,539.712s6.68,1.44,2.361,6.334S476.27,582.9,476.27,582.9L260.04,531.65Z" transform="translate(392.695 -37.509)" opacity="0.1"/>
    <path id="Path_67" data-name="Path 67" d="M610.77,536.65s-11.517,13.82,0,34.551" transform="translate(246.102 -39.63)" opacity="0.1"/>
    <rect id="Rectangle_35" data-name="Rectangle 35" width="54.458" height="0.576" transform="translate(860.978 514.025) rotate(-18.45)" opacity="0.1"/>
    <rect id="Rectangle_36" data-name="Rectangle 36" width="66.355" height="0.576" transform="translate(860.963 518.662) rotate(-20.82)" opacity="0.1"/>
    <rect id="Rectangle_37" data-name="Rectangle 37" width="76.91" height="0.576" transform="translate(861.295 524.122) rotate(-22.26)" opacity="0.1"/>
    <rect id="Rectangle_38" data-name="Rectangle 38" width="88.531" height="0.576" transform="translate(862.14 528.937) rotate(-24.31)" opacity="0.1"/>
    <rect id="Rectangle_39" data-name="Rectangle 39" width="96.829" height="0.576" transform="matrix(0.916, -0.401, 0.401, 0.916, 862.775, 531.28)" opacity="0.1"/>
    <rect id="Rectangle_40" data-name="Rectangle 40" width="115.872" height="0.576" transform="translate(864.116 535.222) rotate(-23.36)" opacity="0.1"/>
    <path id="Path_68" data-name="Path 68" d="M260.96,392.036,362.309,370.73l61.742,11.8L341,409.312Z" transform="translate(443.313 55.749)" fill="#fff" opacity="0.3"/>
    <path id="Path_69" data-name="Path 69" d="M751.488,453.48s5.24,2.113,2.165,5.378S632.76,496.225,632.76,496.225Z" transform="translate(234.604 -4.353)" fill="#ff6b6b"/>
    <path id="Path_70" data-name="Path 70" d="M384.612,149.9s-21.882-1.319-19.325,14.033a3.745,3.745,0,0,0,1.946,3.945s.04-1.152,2.246-.754a9.818,9.818,0,0,0,2.384.115,4.964,4.964,0,0,0,2.908-1.2h0s6.156-2.545,8.551-12.611c0,0,1.774-2.194,1.728-2.758l-3.708,1.578s1.261,2.666.271,4.883c0,0-.121-4.785-.835-4.676-.144,0-1.918.927-1.918.927s2.171,4.647.53,8.022c0,0,.622-5.724-1.209-7.688l-2.6,1.52s2.539,4.8.818,8.713c0,0,.443-6.006-1.365-8.344l-2.361,1.843s2.39,4.728.933,7.975c0,0-.19-6.991-1.44-7.521a14.231,14.231,0,0,0-2.378,2.568s1.635,3.455.616,5.246c0,0-.616-4.659-1.152-4.682,0,0-2.056,3.087-2.269,5.183a11.206,11.206,0,0,1,1.768-5.494,6.167,6.167,0,0,0-3.144,1.63s.317-2.182,3.657-2.372a14.154,14.154,0,0,1,2.154-2.482,13.481,13.481,0,0,0-5.332.61s1.774-2.056,5.937-1.152l2.3-1.9s-4.365-.576-6.219.063c0,0,2.136-1.82,6.847-.5l2.539-1.514a23.075,23.075,0,0,0-5.943-.512s2.338-1.261,6.686.1l1.808-.812s-2.724-.536-3.524-.622-.841-.305-.841-.305a9.507,9.507,0,0,1,5.125.576S384.687,150.141,384.612,149.9Z" transform="translate(348.142 124.424)" fill="#ff6b6b"/>
    <path id="Path_71" data-name="Path 71" d="M919.212,259.479s-21.882-1.319-19.325,14.033a3.745,3.745,0,0,0,1.946,3.945s.04-1.152,2.246-.754a10.146,10.146,0,0,0,2.384.115,4.947,4.947,0,0,0,2.879-1.2h0s6.162-2.545,8.551-12.611c0,0,1.774-2.194,1.728-2.758l-3.7,1.578s1.261,2.666.271,4.883c0,0-.121-4.785-.829-4.676-.144,0-1.923.927-1.923.927s2.171,4.647.536,8.022c0,0,.622-5.724-1.215-7.688l-2.6,1.52s2.539,4.8.818,8.713c0,0,.443-6.006-1.365-8.344l-2.355,1.843s2.384,4.728.927,7.975c0,0-.19-6.991-1.44-7.521a14.44,14.44,0,0,0-2.378,2.568s1.635,3.455.622,5.246c0,0-.622-4.659-1.152-4.682,0,0-2.056,3.087-2.269,5.183a11.17,11.17,0,0,1,1.774-5.494,6.2,6.2,0,0,0-3.15,1.63s.323-2.182,3.657-2.372A14.381,14.381,0,0,1,906,267.075a13.535,13.535,0,0,0-5.332.616s1.774-2.056,5.937-1.152l2.3-1.9s-4.371-.576-6.219.063c0,0,2.131-1.82,6.847-.5l2.534-1.514a23.074,23.074,0,0,0-5.943-.513s2.338-1.261,6.686.1l1.814-.812s-2.729-.536-3.53-.622-.841-.305-.841-.305a9.438,9.438,0,0,1,5.125.576S919.281,259.721,919.212,259.479Z" transform="translate(121.389 77.945)" fill="#ff6b6b" opacity="0.1"/>
    <path id="Path_72" data-name="Path 72" d="M445.2,305.247s-9.536-19.769-21.675-10.025a3.74,3.74,0,0,0-2.493,3.622s1.008-.524,1.728,1.6a10.2,10.2,0,0,0,1.06,2.131,4.969,4.969,0,0,0,2.47,1.958h0s5.223,4.135,15.179,1.313c0,0,2.781.478,3.236.144l-3.179-2.459s-1.728,2.4-4.135,2.614c0,0,4.123-2.436,3.68-3-.092-.115-1.728-1.227-1.728-1.227s-3,4.163-6.743,4.376c0,0,5.3-2.246,6.115-4.808l-2.591-1.532s-2.954,4.561-7.21,4.964c0,0,5.459-2.539,6.616-5.257l-2.753-1.152s-2.966,4.388-6.513,4.7c0,0,6.012-3.576,5.862-4.929a14.593,14.593,0,0,0-3.4-.823s-2.2,3.1-4.273,3.1c0,0,3.76-2.816,3.53-3.271,0,0-3.7-.288-5.643.576a11.211,11.211,0,0,1,5.661-1.152,6.2,6.2,0,0,0-2.96-1.952s2.062-.783,3.852,2.033a14.207,14.207,0,0,1,3.219.668,13.519,13.519,0,0,0-3.133-4.348s2.66.536,3.875,4.607l2.793,1.106s-1.607-4.1-3.087-5.4c0,0,2.626.973,3.772,5.758l2.557,1.474a22.785,22.785,0,0,0-2.447-5.436s2.24,1.428,3.167,5.885l1.6,1.186s-.864-2.643-1.152-3.38-.144-.887-.144-.887a9.449,9.449,0,0,1,2,4.751S444.988,305.42,445.2,305.247Z" transform="translate(324.413 63.918)" fill="#ff6b6b" opacity="0.1"/>
    <path id="Path_73" data-name="Path 73" d="M828.975,201.627s-9.53-19.769-21.675-10.025a3.747,3.747,0,0,0-2.493,3.622s1.013-.518,1.728,1.6a9.986,9.986,0,0,0,1.065,2.136,4.941,4.941,0,0,0,2.465,1.952h0s5.229,4.135,15.179,1.319c0,0,2.781.472,3.242.138l-3.161-2.465s-1.728,2.407-4.129,2.62c0,0,4.117-2.442,3.674-3.006-.092-.115-1.728-1.227-1.728-1.227s-2.994,4.163-6.743,4.376c0,0,5.3-2.246,6.121-4.8l-2.632-1.52s-2.948,4.555-7.21,4.964c0,0,5.459-2.545,6.622-5.263l-2.758-1.152s-2.966,4.394-6.507,4.7c0,0,6.006-3.576,5.856-4.923a14.244,14.244,0,0,0-3.4-.823s-2.2,3.1-4.279,3.1c0,0,3.766-2.816,3.536-3.271,0,0-3.7-.288-5.649.576a11.205,11.205,0,0,1,5.661-1.152,6.166,6.166,0,0,0-2.954-1.952s2.062-.783,3.852,2.033a14.254,14.254,0,0,1,3.219.674,13.475,13.475,0,0,0-3.138-4.353s2.66.541,3.875,4.636l2.8,1.106s-1.607-4.106-3.086-5.4c0,0,2.626.973,3.766,5.758l2.563,1.474a23,23,0,0,0-2.453-5.436s2.246,1.428,3.167,5.885l1.6,1.186s-.858-2.643-1.152-3.38-.144-.881-.144-.881a9.474,9.474,0,0,1,2,4.751S828.8,201.812,828.975,201.627Z" transform="translate(161.632 107.869)" fill="#ff6b6b" opacity="0.1"/>
    <path id="Path_74" data-name="Path 74" d="M881.853,371.434s-9.53-19.775-21.692-10.031a3.747,3.747,0,0,0-2.493,3.622s1.013-.518,1.728,1.6a9.977,9.977,0,0,0,1.06,2.136,4.941,4.941,0,0,0,2.465,1.952h0s5.229,4.14,15.185,1.319c0,0,2.776.478,3.236.138l-3.179-2.459s-1.728,2.407-4.135,2.62c0,0,4.117-2.442,3.674-3.006-.092-.115-1.728-1.227-1.728-1.227s-2.994,4.163-6.743,4.382c0,0,5.3-2.252,6.121-4.808l-2.6-1.532s-2.948,4.561-7.21,4.964c0,0,5.459-2.545,6.622-5.263l-2.758-1.152s-2.966,4.388-6.507,4.7c0,0,6.012-3.576,5.862-4.929a14.305,14.305,0,0,0-3.4-.823s-2.2,3.1-4.279,3.1c0,0,3.766-2.816,3.536-3.271,0,0-3.7-.288-5.649.576a11.24,11.24,0,0,1,5.666-1.152,6.156,6.156,0,0,0-2.96-1.952s2.062-.789,3.852,2.033a14.206,14.206,0,0,1,3.219.668,13.583,13.583,0,0,0-3.133-4.353s2.66.541,3.875,4.636l2.793,1.106s-1.607-4.106-3.087-5.4c0,0,2.626.967,3.766,5.758l2.563,1.468a23,23,0,0,0-2.453-5.436s2.246,1.428,3.173,5.891l1.6,1.152s-.864-2.643-1.152-3.38-.144-.881-.144-.881a9.415,9.415,0,0,1,2,4.751S881.674,371.606,881.853,371.434Z" transform="translate(139.211 35.847)" fill="#ff6b6b" opacity="0.1"/>
    <ellipse id="Ellipse_88" data-name="Ellipse 88" cx="13.239" cy="1.48" rx="13.239" ry="1.48" transform="translate(657.053 661.592)" fill="#ff6b6b" opacity="0.1"/>
    <ellipse id="Ellipse_89" data-name="Ellipse 89" cx="13.239" cy="1.48" rx="13.239" ry="1.48" transform="translate(570.268 636.439)" fill="#ff6b6b" opacity="0.1"/>
    <ellipse id="Ellipse_90" data-name="Ellipse 90" cx="13.239" cy="1.48" rx="13.239" ry="1.48" transform="translate(723.207 678.297)" fill="#ff6b6b" opacity="0.1"/>
    <ellipse id="Ellipse_91" data-name="Ellipse 91" cx="13.239" cy="1.48" rx="13.239" ry="1.48" transform="translate(1062.208 641.909)" fill="#ff6b6b" opacity="0.1"/>
    <ellipse id="Ellipse_92" data-name="Ellipse 92" cx="13.239" cy="1.48" rx="13.239" ry="1.48" transform="translate(952.042 634.728)" fill="#ff6b6b" opacity="0.1"/>
    <ellipse id="Ellipse_93" data-name="Ellipse 93" cx="15.657" cy="2.689" rx="15.657" ry="2.689" transform="translate(878.357 667.333)" fill="#ff6b6b" opacity="0.1"/>
    <path id="Path_75" data-name="Path 75" d="M681.028,790.14s-21.8,11.264-10.538,24.531a4.214,4.214,0,0,0,4.123,2.678s-.61-1.117,1.728-2.01a11.235,11.235,0,0,0,2.355-1.25,5.534,5.534,0,0,0,2.108-2.816h0s4.457-5.966,1-17c0,0,.449-3.121.058-3.628l-2.649,3.634s2.735,1.837,3.052,4.538c0,0-2.879-4.532-3.455-4.031-.127.1-1.313,1.987-1.313,1.987s4.745,3.219,5.1,7.4c0,0-2.672-5.856-5.557-6.691l-1.653,2.948s5.183,3.156,5.758,7.9c0,0-3.012-6.018-6.087-7.233l-1.215,3.115s5,3.179,5.459,7.129c0,0-4.181-6.6-5.684-6.4a15.965,15.965,0,0,0-.818,3.829s3.53,2.361,3.593,4.682c0,0-3.259-4.117-3.76-3.847,0,0-.207,4.14.795,6.294a12.425,12.425,0,0,1-1.445-6.294,6.91,6.91,0,0,0-2.09,3.363s-.939-2.275,2.154-4.371c0,0,.294-3.219.651-3.616,0,0-3.346,1.635-4.768,3.639,0,0,.524-2.989,5.062-4.474l1.152-3.156s-4.538,1.923-5.937,3.616c0,0,1.008-2.966,6.294-4.388l1.566-2.879a26.439,26.439,0,0,0-6,2.879s1.526-2.551,6.484-3.726l1.273-1.814s-2.925,1.042-3.743,1.417-.979.19-.979.19a10.591,10.591,0,0,1,5.246-2.384S681.23,790.336,681.028,790.14Z" transform="translate(219.971 -147.148)" fill="#ff6b6b"/>
    <path id="Path_76" data-name="Path 76" d="M659.679,260.684c-3.766-10.233-24.5-11.194-33.491-8.586-6.392,1.86-19.867,3.956-27.065,5.01l-.466-.443c.933-.276.956-.956.841-1.964a30.723,30.723,0,0,1,.058-3.985c4.411,1.371,8.338-1.872,8.338-1.872h0c5.183-2.3,3.789-12.162,4.78-14.857.743-2.015,1.543-13.889,1.9-19.809h.075l.04-1.987c.052-.858.075-1.359.075-1.359s.507-14.477,1.5-17.408c.921-2.695,1.67-16.273,1.785-18.427v-.282l-.075-1.255c.052-.916.075-1.935.069-3.006,0-4.923-.513-11.125-.576-12.127V157.8c.04-2.1-.225-12.628-9.179-16.607-3.3-1.474-7.267-3.23-11.108-4.941-.99-8.551-3.254-17.057-3.058-25.671,0-1.3.115-2.591.242-3.881,0,.374-.04.754-.046,1.152v2.511c.34-10.774,4.411-21.606,4.031-32.15-.035,1.031-.109,2.067-.207,3.1a33.474,33.474,0,0,0-1.106-10.59,6.266,6.266,0,0,0-1.808-3.282,7.446,7.446,0,0,0-3.156-1.25,63.466,63.466,0,0,0-8.286-1.543,12.8,12.8,0,0,0-1.866-3.622c-5.839-8.016-14.488-15.548-24.715-17.275-5.131-.864-11.033-.144-14.523,3.524a10.9,10.9,0,0,0-1.025,1.037c-1.877,2.24-2.683,5.183-4.607,7.417-.127.15-.271.288-.409.432-3.766,3.369-9.634,4.071-13.82,7.094a16.594,16.594,0,0,0-2.067,1.8,35.057,35.057,0,0,0-4.515,5.488c-1.883,2.649-3.818,5.407-4.417,8.569-1.2,6.334,3.11,12.34,3.91,18.715,1.785,14.264-14,26.921-11.01,40.995a18.772,18.772,0,0,0,5.079,9.116c-6.156,5.574-11.4,10.981-11.4,10.981v.322h-.973l.1,1.152h-.1l.536,6.248-.536,9.1v.858h.035c.178,3.334.887,15.323,1.728,17.851.99,2.931,1.491,17.408,1.491,17.408s1.094,20.46,2.1,23.166-.42,12.536,4.78,14.857h0a10.941,10.941,0,0,0,5.223,2.165c-.265,2.154-.1,3.714.76,4.2a2.511,2.511,0,0,0,1.209.346,12.835,12.835,0,0,0-.939,1.641,24.391,24.391,0,0,1-6.035-1.422c-5.586-2.3-24.122-7.486-29.506-3.841s-18.341,6.95-12.358,21.623,8.77,15.041,8.77,15.041a21.306,21.306,0,0,1,4.785,4.808c1.8,2.7,18.536,8.88,22.723,8.88a40.989,40.989,0,0,1,5.327.265s-4.543,3.985-3.939,6.3-1.382,20.846-1.382,20.846,4.607,4.641,6.576-1.445l.069.092c.369.5,2.361,2.764,6.11-.092a34.257,34.257,0,0,1,4.872-3.087l18.151-2.568a51.386,51.386,0,0,1,5.684-.04c2.879.236,5.707-1.468,7.486-2.787,3.76,1.428,7.987,2.989,10,3.559,4.077,1.152,22.815,6.179,27.2,4.607A6.087,6.087,0,0,0,590.7,327.3l4.181.132-1.958.392s3.812.063,8.995.132l-.219.127,6.5-.058c9.513.086,20.2.115,21.606-.2,2.2-.489,13.63-.144,17,0h.939s12.559-2.5,7.377-15.248c-3.985-9.789-16.233-12.634-21.669-13.417,1.532-.305,2.85-.541,3.726-.679,3.795-.576,11.166-4.031,11.765-5.211s6.778-4.607,8.373-6.559S663.462,270.917,659.679,260.684ZM555.652,289.321l-.616.2-.415.138-.795.783c-.633-.426-1.313-.875-2.021-1.336C553.055,289.183,554.339,289.258,555.652,289.321Zm54.884,16.227Z" transform="translate(306.028 169.572)" fill="url(#linear-gradient)"/>
    <path id="Path_77" data-name="Path 77" d="M686.65,312.689s8.81,23.034,13.82,20.73,3.651-12.093,4.607-14.776,2.015-23.034,2.015-23.034.484-14.4,1.44-17.31c.887-2.678,1.607-16.181,1.728-18.306v-.282l-.95-16.7-5.378-1.342-12.473,4.607-1.728,9.864-.674,3.852-.288,1.641Z" transform="translate(211.746 85.487)" fill="#efefef"/>
    <path id="Path_78" data-name="Path 78" d="M691.69,358.3s8.407,6.881,10.941,7.486,4.089,5.972,4.089,5.972" transform="translate(209.609 36.018)" opacity="0.1"/>
    <path id="Path_79" data-name="Path 79" d="M549.61,314.439s-8.81,23.034-13.82,20.73-3.651-12.093-4.607-14.776-2.016-23.034-2.016-23.034-.484-14.4-1.44-17.31c-.887-2.678-1.607-16.181-1.728-18.306v-.282l.956-16.7,5.378-1.342,12.473,4.607,1.728,9.864.674,3.852.288,1.641Z" transform="translate(279.887 84.745)" fill="#efefef"/>
    <rect id="Rectangle_41" data-name="Rectangle 41" width="19.665" height="30.652" transform="translate(867.203 275.918)" fill="#3e373a"/>
    <rect id="Rectangle_42" data-name="Rectangle 42" width="19.665" height="30.652" transform="translate(867.203 275.918)" opacity="0.1"/>
    <path id="Path_80" data-name="Path 80" d="M557.478,405.24s-6.72,7.388-4.227,8.73,18.623,26.489,18.623,26.489,52.978,6.524,62.969-3.265,9.789-27.278,9.789-27.278-8.027,1.728-8.9.789-5.684-5.465-5.684-5.465S562.085,401.117,557.478,405.24Z" transform="translate(268.563 16.886)" fill="#586ba4"/>
    <path id="Path_81" data-name="Path 81" d="M557.478,405.24s-6.72,7.388-4.227,8.73,18.623,26.489,18.623,26.489,52.978,6.524,62.969-3.265,9.789-27.278,9.789-27.278-8.027,1.728-8.9.789-5.684-5.465-5.684-5.465S562.085,401.117,557.478,405.24Z" transform="translate(268.563 16.886)" opacity="0.02"/>
    <path id="Path_82" data-name="Path 82" d="M642.23,205.382,624.955,219.2l-5.223.38-1.918.138-32.207,2.361-33.4-2.442-4.97-.363-6.334-.461L527.66,206.148a226.811,226.811,0,0,1,17.586-16.82c3.236-2.678,6.294-4.843,8.523-5.7l.38-.132a9.478,9.478,0,0,0,3.651-2.545c6.484-6.686,12.479-23.184,12.479-23.184s28.6-14.776,25.147,4.607,12.859,14.592,12.859,14.592l5.378,2.453,2.125.973,5.419,2.482,12.225,5.609C643.025,192.9,642.23,205.382,642.23,205.382Z" transform="translate(279.183 123.359)" fill="#efefef"/>
    <circle id="Ellipse_94" data-name="Ellipse 94" cx="25.723" cy="25.723" r="25.723" transform="translate(837.725 245.468)" opacity="0.1"/>
    <path id="Path_83" data-name="Path 83" d="M641.567,246.6H526v-.282l.956-16.7a226.809,226.809,0,0,1,17.586-16.82l72.557-2.879,3.374-3.559,12.225,5.609c9.6,4.411,8.828,16.89,8.828,16.89S642.839,243.318,641.567,246.6Z" transform="translate(279.887 100.464)" opacity="0.1"/>
    <path id="Path_84" data-name="Path 84" d="M641.567,245.6H526v-.282l.956-16.7a226.809,226.809,0,0,1,17.586-16.82l72.557-2.879,3.374-3.559,12.225,5.609c9.6,4.411,8.828,16.89,8.828,16.89S642.839,242.318,641.567,245.6Z" transform="translate(279.887 100.888)" fill="#2ec4b6"/>
    <path id="Path_85" data-name="Path 85" d="M588.488,190.214s18.231,23.23,42.515-.478,2.689,52.88,2.689,52.88l-52.4,6.219Z" transform="translate(256.435 109.446)" opacity="0.1"/>
    <path id="Path_86" data-name="Path 86" d="M588.488,192.214s18.231,23.23,42.515-.478,2.689,52.88,2.689,52.88l-52.4,6.219Z" transform="translate(256.435 108.598)" fill="#2ec4b6"/>
    <path id="Path_87" data-name="Path 87" d="M625.887,202.3l1.929,29.42,2.067,9.789L631.461,249s4.031,57.585,2.879,60.464.576,5.183.818,6.714-.242,5.378-.052,7.106,0,2.493-4.411,1.877-10.561-1.687-10.561-1.687-15.548,1.152-20.92-.766-15.548-1.923-15.548-1.923-15.358.386-20.345-.19-7.682,6.144-10.941,4.221,3.835-20.535,6.138-25.913-3.069-19-3.069-19l6.91-38.334,1.538-8.69V205.554l.38-.132a9.479,9.479,0,0,0,3.651-2.545l1.728,27.491,54.13,1.923V201.35" transform="translate(269.055 102.589)" opacity="0.1"/>
    <path id="Path_88" data-name="Path 88" d="M625.887,200.3l1.929,29.42,2.067,9.789L631.461,247s4.031,57.585,2.879,60.464.576,5.183.818,6.714-.242,5.378-.052,7.106,0,2.493-4.411,1.877-10.561-1.687-10.561-1.687-15.548,1.152-20.92-.766-15.548-1.923-15.548-1.923-15.358.386-20.345-.19-7.682,6.144-10.941,4.221,3.835-20.535,6.138-25.913-3.069-19-3.069-19l6.91-38.334,1.538-8.69V203.554l.38-.132a9.479,9.479,0,0,0,3.651-2.545l1.728,27.491,54.13,1.923V199.35" transform="translate(269.055 103.437)" fill="#2ec4b6"/>
    <path id="Path_89" data-name="Path 89" d="M626.179,74.394a6.345,6.345,0,0,0-1.728-3.259,7.071,7.071,0,0,0-3.04-1.244,60.074,60.074,0,0,0-7.993-1.532,12.794,12.794,0,0,0-1.728-3.588c-5.643-7.97-13.993-15.485-23.817-17.183-5.142-.893-11.1-.092-14.4,3.962-1.808,2.229-2.586,5.183-4.411,7.371-3.518,4.25-9.87,4.774-14.3,8.062-2.367,1.728-4.083,4.232-5.758,6.663-1.814,2.632-3.68,5.373-4.255,8.517-1.152,6.282,3,12.271,3.766,18.611,1.728,14.183-13.475,26.765-10.6,40.758,1.676,8.16,9.214,13.907,17.01,16.82,2.747,1.031,5.885,2.056,7.169,4.693.576,1.152.674,2.482,1.215,3.645,1.82,3.881,7.8,4.031,11.016,1.2s4.227-7.4,4.607-11.667c1.543-18.634-5.92-37.044-5.05-55.725.259-5.649,1.849-12.058,6.91-14.615,6.812-3.455,15.007,2.3,22.5,1.2a44.645,44.645,0,0,1,2.154,27.243c-1.192,4.97-3.253,9.789-3.4,14.914-.225,7.8,3.985,14.932,7.624,21.83a11.615,11.615,0,0,1,1.538,4.209,10.147,10.147,0,0,1-.823,4.405c-2.056,5.534-5.6,10.67-6.006,16.561a2.677,2.677,0,0,0,.432,1.969,2.476,2.476,0,0,0,1.486.668c6.219,1.065,11.6-4.446,14.632-9.979a46.782,46.782,0,0,0,5.77-19.878c.628-11.724-3.576-23.258-3.317-34.994C623.68,100.7,629.709,87.264,626.179,74.394Z" transform="translate(274.988 167.947)" opacity="0.1"/>
    <path id="Path_90" data-name="Path 90" d="M627.179,73.394a6.346,6.346,0,0,0-1.728-3.259,7.072,7.072,0,0,0-3.041-1.244,60.072,60.072,0,0,0-7.993-1.532,12.794,12.794,0,0,0-1.728-3.588c-5.643-7.97-13.993-15.485-23.817-17.183-5.142-.893-11.1-.092-14.4,3.962-1.808,2.229-2.586,5.183-4.411,7.371-3.518,4.25-9.87,4.774-14.3,8.062-2.367,1.728-4.083,4.232-5.758,6.663-1.814,2.632-3.68,5.373-4.256,8.517-1.152,6.282,3,12.271,3.766,18.611,1.728,14.183-13.475,26.765-10.6,40.758,1.676,8.16,9.214,13.907,17.01,16.82,2.747,1.031,5.885,2.056,7.169,4.693.576,1.152.674,2.482,1.215,3.645,1.82,3.881,7.8,4.031,11.016,1.2s4.227-7.4,4.607-11.667c1.543-18.634-5.92-37.044-5.05-55.725.259-5.649,1.849-12.058,6.91-14.615,6.812-3.455,15.007,2.3,22.5,1.2a44.645,44.645,0,0,1,2.154,27.243c-1.192,4.97-3.254,9.789-3.4,14.914-.225,7.8,3.985,14.932,7.624,21.83a11.617,11.617,0,0,1,1.538,4.209,10.146,10.146,0,0,1-.823,4.405c-2.056,5.534-5.6,10.67-6.006,16.561a2.678,2.678,0,0,0,.432,1.969,2.476,2.476,0,0,0,1.486.668c6.219,1.065,11.6-4.446,14.632-9.979a46.781,46.781,0,0,0,5.77-19.878c.628-11.724-3.576-23.258-3.317-34.994C624.679,99.7,630.709,86.264,627.179,73.394Z" transform="translate(274.564 168.371)" fill="#3e373a"/>
    <path id="Path_91" data-name="Path 91" d="M581.79,480.79l22.844.731-3.277-16.941-17.5,1.664Z" transform="translate(307.232 15.942)" fill="#c3c7d9"/>
    <path id="Path_92" data-name="Path 92" d="M715.106,440.129c-1.537,1.918-7.486,5.373-8.062,6.524s-7.676,4.607-11.327,5.183-15.162,3.075-17.275,4.417c-1.514.967-13.671,4.031-21.658,5.73a61.461,61.461,0,0,1-6.559,1.181c-3.455.19-41.265-12.669-41.265-12.669l7.29-7.486.4-.138c2.062-.7,11.586-3.916,16.872-5.448,5.954-1.728,12.864-8.828,12.864-8.828s10.169-3.455,11.517-3.841-3.455-13.434-3.455-13.434,22.072-3.064,30.71-5.661,28.6-1.635,32.247,8.54S716.666,438.211,715.106,440.129Z" transform="translate(244.699 16.45)" fill="#586ba4"/>
    <path id="Path_93" data-name="Path 93" d="M582.711,507.765s-4.411,4.607-8.828,4.227-19.861,1.152-19.861,1.152a30.962,30.962,0,0,0-7.78,4.509c-3.611,2.845-5.528.576-5.885.092l-.063-.092c-1.923,6.052-6.334,1.44-6.334,1.44s1.918-18.427,1.33-20.73,3.795-6.259,3.795-6.259l5.183-1.319L557.4,487.42l18.813,6.524Z" transform="translate(276.51 -18.749)" fill="#2ec4b6"/>
    <path id="Path_94" data-name="Path 94" d="M544.245,493.26l-3.887,26.961-.063-.092c-1.923,6.052-6.334,1.44-6.334,1.44s1.918-18.427,1.33-20.73,3.795-6.259,3.795-6.259Z" transform="translate(276.51 -21.226)" opacity="0.1"/>
    <path id="Path_95" data-name="Path 95" d="M599,360.08s10.169,3.455,19,0" transform="translate(248.924 35.263)" opacity="0.1"/>
    <path id="Path_96" data-name="Path 96" d="M659.29,371.42s4.221,2.108,7.486,0" transform="translate(223.351 30.453)" opacity="0.1"/>
    <path id="Path_97" data-name="Path 97" d="M659.29,379.387s7.1.95,8.448-.967" transform="translate(223.351 27.484)" opacity="0.1"/>
    <path id="Path_98" data-name="Path 98" d="M655.29,395.781s13.337-1.728,16.648-4.031" transform="translate(225.048 21.83)" opacity="0.1"/>
    <path id="Path_99" data-name="Path 99" d="M584.62,391.75s7.486,4.221,13.054,4.031" transform="translate(255.023 21.83)" opacity="0.1"/>
    <path id="Path_100" data-name="Path 100" d="M656.774,490.292a61.484,61.484,0,0,1-6.559,1.18c-3.455.19-41.265-12.669-41.265-12.669l7.29-7.486.4-.138c1.152.812,2.1,1.509,2.77,2.038,3.173,2.5,6.236-.766,7.388-.766s11.131,8.252,11.131,8.252,9.214,2.113,10.751,4.031,6.91,1.538,7.866,2.879A5.137,5.137,0,0,1,656.774,490.292Z" transform="translate(244.703 -11.86)" opacity="0.1"/>
    <path id="Path_101" data-name="Path 101" d="M527.195,412.73s-9.317.536-14.69-1.728-23.224-7.486-28.407-3.818-17.661,6.91-11.9,21.5,8.448,14.972,8.448,14.972a20.789,20.789,0,0,1,4.607,4.78c1.728,2.689,17.851,8.828,21.882,8.828s11.131,0,21.111,6.91,19,7.682,19,7.682,12.669,5.183,16.613,6.334,21.969,6.139,26.2,4.607,6.91-11.137,6.91-11.137,1.918-8.638.956-9.979-6.334-.962-7.866-2.879-10.751-4.031-10.751-4.031-9.956-8.258-11.108-8.258-4.215,3.259-7.388.766a168.549,168.549,0,0,0-19.872-12.669C533.644,430.772,527.195,412.73,527.195,412.73Z" transform="translate(303.338 15.822)" fill="#586ba4"/>
    <path id="Path_102" data-name="Path 102" d="M536.27,427.256a11,11,0,0,1,9.438,2.493c4.607,3.841,20.109,11.552,20.109,11.552" transform="translate(275.531 6.865)" opacity="0.1"/>
    <path id="Path_103" data-name="Path 103" d="M718.336,427s-20.54,3.11-24.376,7.331" transform="translate(208.646 6.879)" opacity="0.1"/>
    <path id="Path_104" data-name="Path 104" d="M738.408,516.212h-.9c-3.248-.115-14.252-.461-16.371,0-2.493.576-35.512,0-35.512,0l6.455-1.342s-2.4-8.4-.875-9.093c0,0-8.638-5.689-2.125-9.53a20.2,20.2,0,0,1,13.532-2.223l16.348-5.54,3.138-1.065s18.427.962,23.414,13.63S738.408,516.212,738.408,516.212Z" transform="translate(212.183 -18.748)" fill="#2ec4b6"/>
    <path id="Path_105" data-name="Path 105" d="M762.962,516.234h-.9c5.361-4.423,17.488-17.886-18.548-27.7l3.138-1.065s18.427.962,23.414,13.63S762.962,516.234,762.962,516.234Z" transform="translate(187.629 -18.77)" opacity="0.1"/>
    <circle id="Ellipse_95" data-name="Ellipse 95" cx="1.008" cy="1.008" r="1.008" transform="translate(915.706 480.522)" fill="#586ba4"/>
    <circle id="Ellipse_96" data-name="Ellipse 96" cx="1.008" cy="1.008" r="1.008" transform="translate(909.85 482.187)" fill="#586ba4"/>
    <g id="Group_19" data-name="Group 19" transform="translate(813.271 249.211)" opacity="0.1">
      <path id="Path_106" data-name="Path 106" d="M634.591,127.489a44.68,44.68,0,0,0-3.305-18.508c-7.486,1.117-15.686-4.659-22.5-1.2-5.044,2.557-6.628,8.966-6.91,14.615-.069,1.491-.081,2.983-.052,4.474,0-.53,0-1.065.052-1.6.265-5.649,1.848-12.058,6.91-14.615,6.818-3.455,15.007,2.3,22.5,1.2a44.559,44.559,0,0,1,3.305,15.628Z" transform="translate(-565.537 -106.459)"/>
      <path id="Path_107" data-name="Path 107" d="M555.032,127.287a19.19,19.19,0,0,0-.075-3.766c-.61-5.067-3.38-9.91-3.881-14.851-.645,5.96,3.15,11.684,3.881,17.73A3.6,3.6,0,0,1,555.032,127.287Z" transform="translate(-543.989 -107.311)"/>
      <path id="Path_108" data-name="Path 108" d="M580.207,218.266c-.357,4.273-1.365,8.839-4.607,11.672s-9.214,2.678-11.016-1.2c-.576-1.152-.662-2.493-1.221-3.645-1.278-2.637-4.422-3.662-7.169-4.693-7.8-2.92-15.329-8.638-17-16.82a17.667,17.667,0,0,1-.305-2.246,18.149,18.149,0,0,0,.305,5.125c1.676,8.16,9.214,13.9,17,16.82,2.747,1.031,5.891,2.056,7.169,4.693.576,1.152.674,2.482,1.221,3.645,1.814,3.881,7.8,4.031,11.016,1.2s4.221-7.4,4.607-11.672a65.8,65.8,0,0,0,.179-6.76C580.386,215.692,580.311,216.982,580.207,218.266Z" transform="translate(-538.823 -146.613)"/>
      <path id="Path_109" data-name="Path 109" d="M687.93,135.782v2.493c.323-10.711,4.25-21.479,3.864-31.965C691.494,116.007,688.149,125.923,687.93,135.782Z" transform="translate(-602.067 -106.31)"/>
      <path id="Path_110" data-name="Path 110" d="M659.817,213.478a7.424,7.424,0,0,0,.132-2.079,11.516,11.516,0,0,0-1.537-4.209c-3.328-6.334-7.123-12.818-7.572-19.849,0,.3-.04.576-.046.9-.23,7.8,3.979,14.932,7.618,21.83a13.819,13.819,0,0,1,1.405,3.409Z" transform="translate(-586.312 -140.679)"/>
      <path id="Path_111" data-name="Path 111" d="M677.177,217.412a46.858,46.858,0,0,1-5.81,19.878c-3.041,5.534-8.413,11.045-14.638,9.979a2.447,2.447,0,0,1-1.486-.674,1.439,1.439,0,0,1-.271-.449c-.069.449-.127.9-.161,1.365a2.655,2.655,0,0,0,.432,1.964,2.447,2.447,0,0,0,1.486.674c6.225,1.065,11.6-4.446,14.638-9.979a46.858,46.858,0,0,0,5.81-19.878c.069-1.347.075-2.689.035-4.031C677.2,216.646,677.2,217.026,677.177,217.412Z" transform="translate(-588.003 -152.946)"/>
    </g>
    <path id="Path_112" data-name="Path 112" d="M695.31,513.837s14.575,6.115,24.186-7.417" transform="translate(208.073 -26.807)" fill="none" stroke="#000" stroke-miterlimit="10" stroke-width="1" opacity="0.1"/>
    <path id="Path_113" data-name="Path 113" d="M700.29,535.27s11.9-7.739,27.065-.253" transform="translate(205.961 -37.553)" fill="none" stroke="#000" stroke-miterlimit="10" stroke-width="1" opacity="0.1"/>
    <path id="Path_114" data-name="Path 114" d="M561.93,530.457s5-11.275,18.346-2.678" transform="translate(264.647 -34.496)" fill="none" stroke="#000" stroke-miterlimit="10" stroke-width="1" opacity="0.1"/>
    <path id="Path_115" data-name="Path 115" d="M533.79,236.951l10.193-9.214s39.52-2.591,41.156,10.843c0,0,14.01-15.928,43.476-12.381l12.467,9.928L606.623,251.25l-33.486,11.615-24.664-11.039Z" transform="translate(276.583 92.267)" opacity="0.1"/>
    <path id="Path_116" data-name="Path 116" d="M533.79,237.951l10.193-9.214s39.52-2.591,41.156,10.843c0,0,14.01-15.928,43.476-12.381l12.467,9.928L606.623,252.25l-33.486,11.615-24.664-11.039Z" transform="translate(276.583 91.843)" fill="#d5d6db"/>
    <path id="Path_117" data-name="Path 117" d="M437.38,204.83l4.509,53.94,47.8,2.4-2.073-53.709-.04-.9Z" transform="translate(368.484 126.116)" opacity="0.1"/>
    <path id="Path_118" data-name="Path 118" d="M437.38,202.83l4.509,53.94,47.8,2.4-2.073-53.709-.04-.9Z" transform="translate(368.484 126.965)" fill="#ff6b6b"/>
    <path id="Path_119" data-name="Path 119" d="M599.014,202.83l-49.3,7.394v54.181l48.181-6.962Z" transform="translate(320.839 126.965)" opacity="0.1"/>
    <path id="Path_120" data-name="Path 120" d="M599.014,200.83l-49.3,7.394v54.181l48.181-6.962Z" transform="translate(320.839 127.813)" fill="#ff6b6b"/>
    <path id="Path_121" data-name="Path 121" d="M595.523,223.79l-26.633,2.96.582,9.075,26.034-2.845Z" transform="translate(312.703 118.074)" fill="#fff" opacity="0.3"/>
    <path id="Path_122" data-name="Path 122" d="M537.438,354.7l2.712,7.3s4.031,3.455,8.442,1.728,8.258-2.586,10.175-4.267,4.607-10.129,4.607-10.129,2.689-9.214,5.373-11.517,9.789-34.038,0-30.934-17.275,31.9-17.275,31.9a6.828,6.828,0,0,1-4.221,2.3c-2.493.2-7.486-.386-8.448,1.728S534.558,350.476,537.438,354.7Z" transform="translate(275.526 57.922)" fill="#efefef"/>
    <path id="Path_123" data-name="Path 123" d="M627.64,256.425a16.584,16.584,0,0,1-14.459-3.6l2.079,53.7a14.656,14.656,0,0,0,12.381,4.089Z" transform="translate(242.909 80.758)" opacity="0.1"/>
    <path id="Path_124" data-name="Path 124" d="M627.64,254.425a16.584,16.584,0,0,1-14.459-3.6l2.079,53.7a14.656,14.656,0,0,0,12.381,4.089Z" transform="translate(242.909 81.606)" fill="#ff6b6b"/>
    <path id="Path_125" data-name="Path 125" d="M627.64,254.425a16.584,16.584,0,0,1-14.459-3.6l2.079,53.7a14.656,14.656,0,0,0,12.381,4.089Z" transform="translate(242.909 81.606)" opacity="0.1"/>
    <path id="Path_126" data-name="Path 126" d="M640.29,242.628s20.057-6.133,25.285-5.269" transform="translate(231.41 87.351)" opacity="0.1"/>
    <path id="Path_127" data-name="Path 127" d="M584.618,239.318s-19.441-4.607-22.688-3.3" transform="translate(264.647 87.984)" opacity="0.1"/>
    <path id="Path_128" data-name="Path 128" d="M662.25,245.535s13.411-4.918,18.26-2.58" transform="translate(222.096 85.209)" opacity="0.1"/>
    <path id="Path_129" data-name="Path 129" d="M650.52,454.7a44.092,44.092,0,0,1,6.611-4.106,107.845,107.845,0,0,0,9.789-5.983" transform="translate(227.071 -0.59)" opacity="0.1"/>
    <path id="Path_130" data-name="Path 130" d="M550.86,360.08s-8.413,6.881-10.941,7.486-4.088,5.972-4.088,5.972" transform="translate(275.717 35.263)" opacity="0.1"/>
    <path id="Path_131" data-name="Path 131" d="M688.584,352.93l-2.683,7.313s-4.031,3.455-8.448,1.728-8.252-2.586-10.175-4.267-4.607-10.129-4.607-10.129-2.683-9.214-5.373-11.517-9.789-34.038,0-30.934,17.275,31.9,17.275,31.9a6.828,6.828,0,0,0,4.221,2.3c2.493.2,7.486-.386,8.448,1.728S691.463,348.726,688.584,352.93Z" transform="translate(226.322 58.664)" fill="#efefef"/>
    <path id="Path_132" data-name="Path 132" d="M707.15,364.94s5.5,3.536,5.476,7.762" transform="translate(203.051 33.202)" opacity="0.1"/>
    <circle id="Ellipse_97" data-name="Ellipse 97" cx="25.723" cy="25.723" r="25.723" transform="translate(837.817 244.207)" fill="#efefef"/>
    <path id="Path_133" data-name="Path 133" d="M588.688,110.325c3.121-.489,5.856-2.3,8.839-3.346,6.674-2.344,14.056-.737,20.811,1.376a26.989,26.989,0,0,0,7.941,1.728c2.718,0,5.6-1.111,6.991-3.455a7.811,7.811,0,0,0-.046-7.215,20.322,20.322,0,0,0-4.7-5.8c-5.989-5.655-13.417-10.941-21.635-10.365a29.775,29.775,0,0,0-9.507,2.724,104.8,104.8,0,0,0-11.16,5.62c-2.77,1.607-7.9,3.755-9.5,6.691C573.1,104.9,583.045,111.211,588.688,110.325Z" transform="translate(258.7 152.701)" fill="#3e373a"/>
    <path id="Path_134" data-name="Path 134" d="M633.268,116.321c-1.388,2.344-4.273,3.455-6.991,3.455a27.012,27.012,0,0,1-7.947-1.693c-6.755-2.113-14.131-3.726-20.811-1.376-2.977,1.042-5.718,2.879-8.839,3.34-4.549.714-11.874-3.248-12.669-8.286-.893,5.822,7.6,10.809,12.669,10.014,3.121-.489,5.862-2.3,8.839-3.34,6.68-2.349,14.056-.737,20.811,1.376,2.6.812,5.223,1.728,7.947,1.693s5.6-1.106,6.991-3.455a6.743,6.743,0,0,0,.806-4.209,6.208,6.208,0,0,1-.806,2.482Z" transform="translate(258.702 140.589)" opacity="0.1"/>
    <path id="Path_135" data-name="Path 135" d="M1031.078,661.63s3.415,4.463-1.578,11.206-9.1,12.433-7.446,16.636c0,0,7.532-12.519,13.659-12.7S1037.81,669.156,1031.078,661.63Z" transform="translate(69.642 -92.64)" fill="#ff6b6b"/>
    <path id="Path_136" data-name="Path 136" d="M1031.222,661.63a5.528,5.528,0,0,1,.7,1.4c5.977,7.025,9.167,13.584,3.415,13.745-5.355.155-11.776,9.732-13.313,12.145a5.627,5.627,0,0,0,.179.576s7.532-12.519,13.659-12.7S1037.954,669.156,1031.222,661.63Z" transform="translate(69.498 -92.64)" opacity="0.1"/>
    <path id="Path_137" data-name="Path 137" d="M1048.419,670.77c0,1.572-.179,2.845-.392,2.845s-.4-1.273-.4-2.845.219-.829.438-.829S1048.419,669.2,1048.419,670.77Z" transform="translate(58.636 -96.091)" fill="#ffd037"/>
    <path id="Path_138" data-name="Path 138" d="M1050.808,673.954c-1.376.749-2.58,1.2-2.683,1.013s.927-.956,2.3-1.728.835-.207.939,0S1052.19,673.2,1050.808,673.954Z" transform="translate(58.429 -97.398)" fill="#ffd037"/>
    <path id="Path_139" data-name="Path 139" d="M1001.019,661.63s-3.415,4.463,1.578,11.206,9.1,12.433,7.44,16.636c0,0-7.526-12.519-13.659-12.7S994.3,669.156,1001.019,661.63Z" transform="translate(81.654 -92.64)" fill="#ff6b6b"/>
    <path id="Path_140" data-name="Path 140" d="M1001.019,661.63a5.531,5.531,0,0,0-.7,1.4c-5.977,7.025-9.167,13.584-3.415,13.745,5.35.155,11.776,9.732,13.314,12.145a4.45,4.45,0,0,1-.184.576s-7.526-12.519-13.659-12.7S994.3,669.156,1001.019,661.63Z" transform="translate(81.654 -92.64)" opacity="0.1"/>
    <path id="Path_141" data-name="Path 141" d="M995.64,670.77c0,1.572.173,2.845.391,2.845s.4-1.273.4-2.845-.224-.829-.438-.829S995.64,669.2,995.64,670.77Z" transform="translate(80.687 -96.091)" fill="#ffd037"/>
    <path id="Path_142" data-name="Path 142" d="M991.243,673.954c1.376.749,2.58,1.2,2.683,1.013s-.927-.956-2.3-1.728-.835-.207-.939,0S989.861,673.2,991.243,673.954Z" transform="translate(82.908 -97.398)" fill="#ffd037"/>
    <ellipse id="Ellipse_98" data-name="Ellipse 98" cx="35.702" cy="5.476" rx="35.702" ry="5.476" transform="translate(1055.994 620.038)" fill="#ff6b6b" opacity="0.1"/>
    <path id="Path_143" data-name="Path 143" d="M1027.161,697.995l-.173,1.394-.242,1.969-.1.823-.242,1.969-.1.823-.236,1.964-2.735,22.4c-.242,2-3.507,3.559-7.451,3.559h-14.194c-3.945,0-7.2-1.561-7.451-3.559l-2.735-22.4-.242-1.964-.1-.823-.242-1.969-.1-.823-.236-1.969-.173-1.394c-.132-1.152,1.63-2.085,3.864-2.085H1023.3C1025.531,695.91,1027.3,696.86,1027.161,697.995Z" transform="translate(82.911 -107.18)" fill="#ff6b6b"/>
    <path id="Path_144" data-name="Path 144" d="M938.541,658.53,938.3,660.5H902.372l-.242-1.969Z" transform="translate(171.358 -66.322)" fill="#9d9cb5"/>
    <path id="Path_145" data-name="Path 145" d="M938.451,663.38l-.236,1.969H902.962l-.242-1.969Z" transform="translate(171.108 -68.379)" fill="#9d9cb5"/>
    <path id="Path_146" data-name="Path 146" d="M938.366,668.23l-.242,1.969H903.556l-.236-1.969Z" transform="translate(170.854 -70.436)" fill="#9d9cb5"/>
  </g>
</svg>
