<svg xmlns="http://www.w3.org/2000/svg" width="403.828" height="270.839" viewBox="0 0 403.828 270.839">
  <g id="Group_31" data-name="Group 31" transform="translate(-734 -265)">
    <path id="Path_161" data-name="Path 161" d="M789.839,316.046a4.162,4.162,0,0,0,.859,1.732A96.339,96.339,0,0,0,803.611,332.4a6.872,6.872,0,0,0,1.211-1.706,25.816,25.816,0,0,0,3.153-12.974c-2.171-.7-4.627-1.672-5.324-3.84-.547-1.71.191-3.75-.78-5.272-1.372-2.145-7.214-2.422-9.093-.862-1.226,1.02-.787,1.972-1.177,3.352C791.17,312.6,789.6,314.437,789.839,316.046Z" transform="translate(217.272 39.976)" opacity="0.1"/>
    <path id="Path_159" data-name="Path 159" d="M862.587,354c-.806,2.625,2.051,5.482,2.973,8.062s2.164,5.062,2.662,7.762a51.277,51.277,0,0,1,.457,5.643,62.876,62.876,0,0,0,1.875,10.465q1.781,7.469,3.813,14.875a55.422,55.422,0,0,1,1.586,6.835,26.272,26.272,0,0,1-.03,7.533,9.621,9.621,0,0,0-7.154.656,21.264,21.264,0,0,1-2.718-8.845,46.263,46.263,0,0,1,.053-5.538c.24-5.216-2.021-10.439-2.1-15.658a29.492,29.492,0,0,0-.427-5.4c-.247-1.226-.225-3.521-.491-4.743-.424-1.942,1.4-2.838,1.3-4.829l-.555-10.874C863.715,358.038,861.8,355.7,862.587,354Z" transform="translate(171.903 10.447)" fill="#586ba4" opacity="0.1"/>
    <g id="Group_20" data-name="Group 20" transform="translate(752.73 265)" opacity="0.2">
      <path id="Path_147" data-name="Path 147" d="M180.458,725.1a17.52,17.52,0,0,0-.161,2.947q9.805.157,19.685.656c.045-.255.09-.517.127-.784a15.624,15.624,0,0,0-.919-8.148c-1.357-3.311-3.888-5.677-7.057-6.13s-6.258,1.1-8.489,3.885A15.651,15.651,0,0,0,180.458,725.1Z" transform="translate(-154.479 -479.295)" fill="#2b2b2b"/>
      <ellipse id="Ellipse_99" data-name="Ellipse 99" cx="12.996" cy="9.929" rx="12.996" ry="9.929" transform="translate(26.286 242.357) rotate(-81.951)" fill="#2b2b2b"/>
      <ellipse id="Ellipse_100" data-name="Ellipse 100" cx="12.996" cy="9.929" rx="12.996" ry="9.929" transform="translate(28.654 227.225) rotate(-81.82)" fill="#2b2b2b"/>
      <ellipse id="Ellipse_101" data-name="Ellipse 101" cx="12.996" cy="9.929" rx="12.996" ry="9.929" transform="translate(30.912 211.505) rotate(-81.82)" fill="#2b2b2b"/>
      <ellipse id="Ellipse_102" data-name="Ellipse 102" cx="12.996" cy="9.929" rx="12.996" ry="9.929" transform="translate(33.171 195.782) rotate(-81.82)" fill="#2b2b2b"/>
      <path id="Path_148" data-name="Path 148" d="M208.547,170.8a47.774,47.774,0,0,0,4.432-4.874l-25.2-7.938,27.893,4.222a47.65,47.65,0,0,0,6.258-37.166l-40.259,14.065,38.2-20.431a47.556,47.556,0,1,0-85.31,41.489,47.835,47.835,0,0,0-6.6,7.814L158.967,190.2l-34.012-17.128a47.582,47.582,0,0,0,1.237,45.291A47.552,47.552,0,1,0,200.182,229a47.556,47.556,0,0,0,8.365-58.2Z" transform="translate(-111.454 -88.778)" fill="#ff6b6b"/>
      <path id="Path_149" data-name="Path 149" d="M120.3,352.109a47.364,47.364,0,0,0,5.891,30.548,47.552,47.552,0,1,0,73.99,10.63C207.647,386.186,121.062,346.826,120.3,352.109Z" transform="translate(-111.454 -253.068)" opacity="0.1"/>
    </g>
    <path id="Path_150" data-name="Path 150" d="M61.5,567.4c0,36.888,23.142,66.742,51.744,66.742" transform="translate(672.5 -122.938)" fill="#586ba4"/>
    <path id="Path_151" data-name="Path 151" d="M199.5,632.892c0-37.3,25.827-67.492,57.743-67.492" transform="translate(586.244 -121.687)" fill="#ff6b6b"/>
    <path id="Path_152" data-name="Path 152" d="M111.5,576.32c0,35.04,14.758,63.4,33,63.4" transform="translate(641.248 -128.513)" fill="#ff6b6b"/>
    <path id="Path_153" data-name="Path 153" d="M199.5,601.64c0-47.668,29.85-86.24,66.742-86.24" transform="translate(586.244 -90.435)" fill="#ff6b6b"/>
    <ellipse id="Ellipse_103" data-name="Ellipse 103" cx="12.865" cy="2.175" rx="12.865" ry="2.175" transform="translate(770.633 519.607)" fill="#ff6b6b" opacity="0.1"/>
    <path id="Path_154" data-name="Path 154" d="M170.47,740.043s7.338-.225,9.55-1.8,11.286-3.453,11.834-.93,11.031,12.561,2.745,12.628-19.25-1.29-21.459-2.625S170.47,740.043,170.47,740.043Z" transform="translate(604.389 -228.37)" fill="#a8a8a8"/>
    <path id="Path_155" data-name="Path 155" d="M194.748,755.709c-8.287.064-19.25-1.294-21.459-2.625-1.68-1.024-2.351-4.7-2.576-6.374h-.244s.465,5.921,2.67,7.263,13.176,2.7,21.459,2.625c2.392,0,3.217-.87,3.172-2.13C197.437,755.218,196.541,755.694,194.748,755.709Z" transform="translate(604.389 -235.014)" opacity="0.2"/>
    <ellipse id="Ellipse_104" data-name="Ellipse 104" cx="191.603" cy="6.371" rx="191.603" ry="6.371" transform="translate(752.628 523.098)" fill="#ff6b6b" opacity="0.1"/>
    <rect id="Rectangle_43" data-name="Rectangle 43" width="3.716" height="30.645" rx="1.858" transform="translate(994.73 336.044)" fill="#586ba4"/>
    <rect id="Rectangle_44" data-name="Rectangle 44" width="2.085" height="10.09" rx="1.042" transform="translate(871.155 312.035)" fill="#586ba4"/>
    <rect id="Rectangle_45" data-name="Rectangle 45" width="2.351" height="17.563" rx="1.175" transform="translate(871.08 330.506)" fill="#586ba4"/>
    <rect id="Rectangle_46" data-name="Rectangle 46" width="2.238" height="17.713" rx="1.119" transform="translate(871.118 354.214)" fill="#586ba4"/>
    <rect id="Rectangle_47" data-name="Rectangle 47" width="124.399" height="252.822" rx="38.99" transform="translate(872.336 278.694)" fill="#586ba4"/>
    <rect id="Rectangle_48" data-name="Rectangle 48" width="17.372" height="3.528" rx="1.764" transform="translate(922.536 286.242)" fill="#e6e8ec"/>
    <circle id="Ellipse_105" data-name="Ellipse 105" cx="2.002" cy="2.002" r="2.002" transform="translate(942.532 286.006)" fill="#e6e8ec"/>
    <path id="Path_156" data-name="Path 156" d="M550.083,142.86H535.835v1.714a8.137,8.137,0,0,1-8.136,8.137H482.306a8.133,8.133,0,0,1-8.137-8.137V142.86H460.81a9.88,9.88,0,0,0-9.88,9.88V372.63a9.88,9.88,0,0,0,9.88,9.88h89.273a9.876,9.876,0,0,0,9.876-9.88V152.74A9.876,9.876,0,0,0,550.083,142.86Z" transform="translate(429.089 142.418)" fill="#e6e8ec"/>
    <rect id="Rectangle_49" data-name="Rectangle 49" width="58.493" height="20.248" rx="3.88" transform="translate(905.516 313.621)" fill="#ff6b6b"/>
    <g id="Group_21" data-name="Group 21" transform="translate(897.361 450.855)" opacity="0.3">
      <rect id="Rectangle_50" data-name="Rectangle 50" width="74.991" height="6.749" rx="3.375" fill="#ff6b6b"/>
      <rect id="Rectangle_51" data-name="Rectangle 51" width="74.991" height="6.749" rx="3.375" transform="translate(0 10.499)" fill="#ff6b6b"/>
      <rect id="Rectangle_52" data-name="Rectangle 52" width="74.991" height="6.749" rx="3.375" transform="translate(0 20.998)" fill="#ff6b6b"/>
      <rect id="Rectangle_53" data-name="Rectangle 53" width="74.991" height="6.749" rx="3.375" transform="translate(0 31.496)" fill="#ff6b6b"/>
      <rect id="Rectangle_54" data-name="Rectangle 54" width="28.497" height="6.749" rx="3.375" transform="translate(0 41.995)" fill="#ff6b6b"/>
    </g>
    <rect id="Rectangle_55" data-name="Rectangle 55" width="101.988" height="77.241" rx="5.71" transform="translate(883.863 353.742)" fill="#ff6b6b" opacity="0.3"/>
    <path id="Path_157" data-name="Path 157" d="M879.53,523.991c.112,1.5.532,3.277,1.95,3.795a3.626,3.626,0,0,0,2.085-.034,8.831,8.831,0,0,0,4.627-2.651,5.589,5.589,0,0,0,1.271-5.047c-.472-1.657-1.811-2.895-2.752-4.338-1.1-1.684-1.451-3.588-2.216-5.4C878.442,510.9,879.192,519.484,879.53,523.991Z" transform="translate(161.335 -87.26)" fill="#efefef"/>
    <path id="Path_158" data-name="Path 158" d="M862.587,354c-.806,2.625,2.051,5.482,2.973,8.062s2.164,5.062,2.662,7.762a51.277,51.277,0,0,1,.457,5.643,62.876,62.876,0,0,0,1.875,10.465q1.781,7.469,3.813,14.875a55.422,55.422,0,0,1,1.586,6.835,26.272,26.272,0,0,1-.03,7.533,9.621,9.621,0,0,0-7.154.656,21.264,21.264,0,0,1-2.718-8.845,46.263,46.263,0,0,1,.053-5.538c.24-5.216-2.021-10.439-2.1-15.658a29.492,29.492,0,0,0-.427-5.4c-.247-1.226-.225-3.521-.491-4.743-.424-1.942,1.4-2.838,1.3-4.829l-.555-10.874C863.715,358.038,861.8,355.7,862.587,354Z" transform="translate(171.903 10.447)" fill="#586ba4"/>
    <path id="Path_160" data-name="Path 160" d="M789.839,316.046a4.162,4.162,0,0,0,.859,1.732A96.339,96.339,0,0,0,803.611,332.4a6.872,6.872,0,0,0,1.211-1.706,25.816,25.816,0,0,0,3.153-12.974c-2.171-.7-4.627-1.672-5.324-3.84-.547-1.71.191-3.75-.78-5.272-1.372-2.145-7.214-2.422-9.093-.862-1.226,1.02-.787,1.972-1.177,3.352C791.17,312.6,789.6,314.437,789.839,316.046Z" transform="translate(217.272 39.976)" fill="#efefef"/>
    <path id="Path_162" data-name="Path 162" d="M793.278,779.976a5.009,5.009,0,0,0,2.055.862,68.844,68.844,0,0,0,21.823,1.8c.975-.075,2.28-.6,2.04-1.549s-1.5-.832-2.362-1.1a5.309,5.309,0,0,1-2.028-1.5,44.442,44.442,0,0,0-7.657-5.654,5.266,5.266,0,0,0-4.987-.9c-2.362.446-6.869.375-8.736,2.122C791.928,775.447,791.707,778.6,793.278,779.976Z" transform="translate(215.783 -250.631)" fill="#586ba4"/>
    <path id="Path_163" data-name="Path 163" d="M867.477,768.456a2.036,2.036,0,0,0,.51,1.609,1.874,1.874,0,0,0,1.211.326,8.444,8.444,0,0,0,7.409-4.5l10.5-1.226A14.687,14.687,0,0,0,898.49,759a2.2,2.2,0,0,0,.645-.93,1.482,1.482,0,0,0-.964-1.62,3.866,3.866,0,0,0-2.028-.109c-5.126.7-10.27,3-15.283,1.721a12.005,12.005,0,0,0-3.708-.75,7.7,7.7,0,0,0-1.984.532c-1.631.6-6.505,1.447-7.585,2.831S867.477,766.807,867.477,768.456Z" transform="translate(168.982 -240.982)" fill="#586ba4"/>
    <path id="Path_164" data-name="Path 164" d="M778.833,468.064c-1.5,2.34-4.657,2.846-6.865,4.522-3.375,2.576-3.971,7.375-4.162,11.624a32.881,32.881,0,0,0,.439,8.8c.454,2,1.256,3.9,1.875,5.868a52.7,52.7,0,0,1,1.875,13.21c.517,11.249.06,22.565,1.5,33.746.412,3.195.982,6.374,1.294,9.58,1.035,10.619-.716,21.568,2.126,31.849a16.551,16.551,0,0,1,11.9-5.332,6.859,6.859,0,0,0,2.782-.323,1.894,1.894,0,0,0,1.185-2.25,7.145,7.145,0,0,0-.75-1.061c-1.237-1.875.87-4.529-.034-6.6-.345-.791-1.1-1.38-1.32-2.22-.236-.907.221-1.837.349-2.767.251-1.875-.825-3.618-1.384-5.418-.844-2.718-.506-5.624-.214-8.47a240.7,240.7,0,0,0,1.275-27.994c-.082-6.326-.4-12.786,1.425-18.845a47.959,47.959,0,0,1,8.669,10.971A23.966,23.966,0,0,1,804,524.919a29.838,29.838,0,0,1,.214,6.314l-1.08,32.359c-.221,6.52-.409,13.236,1.856,19.359,5.744-3.063,11.624-6,17.372-9.078-.1-2.122-2.943-2.895-4-4.74a5.891,5.891,0,0,1-.6-2.471c-.731-8.766,1.061-17.525,2.715-26.164a53.2,53.2,0,0,0,1.241-9.959c0-5.317-1.56-10.5-3.165-15.561-1.7-5.369-3.483-10.712-5.249-16.056-1.144-3.431-2.287-6.865-3.716-10.188-1.354-3.138-2.958-6.176-4.125-9.393-1.849-5.167-2.478-10.675-3.1-16.123C794.551,464.776,786.625,466.512,778.833,468.064Z" transform="translate(231.086 -57.82)" fill="#586ba4"/>
    <circle id="Ellipse_106" data-name="Ellipse 106" cx="10.956" cy="10.956" r="10.956" transform="translate(1002.893 330.479)" fill="#efefef"/>
    <path id="Path_165" data-name="Path 165" d="M797.341,337.982l-.8-5.939a4.8,4.8,0,0,0-.525-1.9,4.876,4.876,0,0,0-1.372-1.312l-7.634-5.576c-.375-.285-.892-.585-1.324-.375a1.26,1.26,0,0,0-.532.776c-1.2,3.566-.461,7.447-.037,11.185.353,3.116.473,6.254.593,9.374a69.943,69.943,0,0,1,0,8.5c-.416,4.9-1.875,9.843-.9,14.665.641,3.191,1.781,6.157,2.047,9.4a27.861,27.861,0,0,0,.836,6.67c2.625-1.125,5.594-1,8.452-.851l6.922.375a12.592,12.592,0,0,0,2.887-.067,9.694,9.694,0,0,0,3.022-1.185,20.733,20.733,0,0,0,6.322-5.512c-1.17-5.651-.037-11.485-.814-17.2-.45-3.3-1.563-6.468-2.089-9.749-.649-4.05-.375-8.249-1.556-12.182a35.07,35.07,0,0,0-2.486-5.763,10.664,10.664,0,0,0-4.769-4.856,2.587,2.587,0,0,0-1.249-.319c-1.106.06-1.789,1.23-2.092,2.295-.375,1.279-.484,2.625-.772,3.9A17.174,17.174,0,0,1,797.341,337.982Z" transform="translate(220.602 29.94)" fill="#ff6b6b"/>
    <path id="Path_166" data-name="Path 166" d="M742,410.125c1.462,1.541,4.125,1.162,5.819-.109,3.693-2.76,4.035-8.05,4.237-12.655a11.148,11.148,0,0,1,.96-4.822c1.189-2.25,3.641-3.412,5.681-4.9,4.837-3.543,7.679-9.374,8.526-15.294s-.124-12-1.758-17.762c-2.827-9.963-7.589-19.25-12.422-28.407a2.069,2.069,0,0,0-.675-.859c-.982-.611-2.047.592-2.718,1.534-2.276,3.191-6.026,4.9-9.46,6.783s-6.948,4.4-7.987,8.174c-.7,2.535-.154,5.223.375,7.792s2.377,4.608,3.776,6.772a66.12,66.12,0,0,1,4.38,7.458,14.077,14.077,0,0,1,1.125,3.026,18.062,18.062,0,0,1,.3,3.75,176.7,176.7,0,0,1-.78,23.281c-.529,4.361-1.384,8.74-.994,13.123A5.4,5.4,0,0,0,742,410.125Z" transform="translate(253.49 28.481)" fill="#586ba4"/>
    <path id="Path_167" data-name="Path 167" d="M776.43,499.143a19.849,19.849,0,0,0,4.829,1.7,6.306,6.306,0,0,0,4.875-.99,3.864,3.864,0,0,0,1.279-4.559,23.1,23.1,0,0,0,3.6-.169c.682-.09,1.5-.352,1.62-1.031.124-.8-.84-1.275-1.616-1.5l-4.181-1.155a15.063,15.063,0,0,0-3.78-.7,15.245,15.245,0,0,0-2.373.236l-6.344.986a1.162,1.162,0,0,0-.48.15,1.124,1.124,0,0,0-.375.63c-.307.975-1.729,3.69-1.241,4.653C772.643,498.209,775.556,498.712,776.43,499.143Z" transform="translate(228.318 -75.022)" fill="#efefef"/>
    <path id="Path_168" data-name="Path 168" d="M854.352,405.609a6.483,6.483,0,0,1-4.072,3.566,2.228,2.228,0,0,1-1.211.079c-.75-.206-1.162-.99-1.474-1.7-7.428-16.907-7.012-36.146-11.732-53.994-1.4-5.3-3.277-10.622-2.94-16.093a3.268,3.268,0,0,1,1.084-2.625,2.658,2.658,0,0,1,2.516,0c.8.356,1.481.937,2.25,1.335,1.241.634,2.685.814,3.877,1.53,1.77,1.065,2.673,3.09,3.465,4.994,1.691,4.068,3.375,8.249,3.51,12.659.285,8.564-3.513,16.794-1.534,25.122a49.852,49.852,0,0,0,1.53,4.852,147.518,147.518,0,0,1,4.875,17.552A4.018,4.018,0,0,1,854.352,405.609Z" transform="translate(190.352 22.622)" fill="#586ba4"/>
    <path id="Path_169" data-name="Path 169" d="M779.287,265.057a14.464,14.464,0,0,0,1.92-3.195c.251-.847.2-1.774.5-2.606.75-2.055,3.356-2.812,5.508-2.456s4.1,1.5,6.2,2.074c1.166.319,2.79.221,3.12-.941a2.631,2.631,0,0,0-.8-2.175l-6.209-7.953a3.414,3.414,0,0,1-2.475,0c-.431-.232-.75-.652-1.23-.784-1.294-.375-2.377,1.616-3.675,1.267-.375-.1-.671-.375-1.046-.4-1.046-.086-1.44,1.646-2.486,1.732-.435.038-.851-.24-1.286-.2a1.646,1.646,0,0,0-.971.6,11.648,11.648,0,0,0-2.812,8.41c.112,3.033-.409,5.966.75,8.767.514,1.219,1.545,2.658,2.8,2.25,0-1.65,1.537-3.3,1.556-4.942" transform="translate(227.457 77.343)" fill="#586ba4"/>
    <g id="Group_22" data-name="Group 22" transform="translate(1006.706 443.293)" opacity="0.1">
      <path id="Path_170" data-name="Path 170" d="M810.008,574.3a47.62,47.62,0,0,0-8.092-10.019c-1.822,6.059-1.5,12.52-1.425,18.845a240.682,240.682,0,0,1-1.275,27.994c-.293,2.831-.63,5.752.214,8.47.559,1.8,1.635,3.551,1.384,5.418-.128.93-.585,1.875-.349,2.767.218.84.975,1.429,1.32,2.22.9,2.066-1.2,4.709.034,6.6a7.144,7.144,0,0,1,.75,1.061,1.873,1.873,0,0,1-1.185,2.25,7.06,7.06,0,0,1-2.782.323,16.577,16.577,0,0,0-9.8,3.416,44.24,44.24,0,0,0,1.279,6.787A16.551,16.551,0,0,1,802,645.094a6.86,6.86,0,0,0,2.782-.322,1.894,1.894,0,0,0,1.185-2.25,7.143,7.143,0,0,0-.75-1.061c-1.237-1.875.87-4.529-.034-6.6-.345-.791-1.1-1.38-1.32-2.22-.236-.907.221-1.837.349-2.767.251-1.875-.825-3.618-1.384-5.418-.844-2.718-.506-5.624-.214-8.47A240.7,240.7,0,0,0,803.888,588c-.083-6.326-.4-12.786,1.425-18.845A46.32,46.32,0,0,1,810.008,574.3Z" transform="translate(-788.8 -564.28)"/>
    </g>
    <g id="Group_23" data-name="Group 23" transform="translate(1000.979 332.56)" opacity="0.1">
      <path id="Path_171" data-name="Path 171" d="M773.574,275.882V274.33a11.728,11.728,0,0,0,0,1.2C773.57,275.65,773.574,275.766,773.574,275.882Z" transform="translate(-773.547 -272.315)"/>
      <path id="Path_172" data-name="Path 172" d="M793.42,271.114c-2.1-.577-4.046-1.721-6.2-2.074s-4.766.4-5.508,2.456c-.3.832-.247,1.759-.5,2.606a14.468,14.468,0,0,1-1.92,3.195l-.619-.547c0,1.646-1.537,3.292-1.556,4.942-1.26.409-2.291-1.031-2.8-2.25a11.336,11.336,0,0,1-.776-4.222,13.747,13.747,0,0,0,.776,5.722c.514,1.222,1.545,2.662,2.8,2.25,0-1.65,1.537-3.3,1.556-4.942l.619.547a14.468,14.468,0,0,0,1.92-3.195c.251-.847.2-1.774.5-2.606.75-2.055,3.356-2.812,5.508-2.456s4.1,1.5,6.2,2.073c1.166.319,2.79.221,3.12-.941a1.657,1.657,0,0,0-.15-1.17C795.868,271.351,794.466,271.4,793.42,271.114Z" transform="translate(-773.528 -268.957)"/>
    </g>
    <path id="Path_173" data-name="Path 173" d="M724.611,373.953a55.4,55.4,0,0,1-1.38,6.8l-2.625,10.7a10.042,10.042,0,0,0-.439,3.476,9.573,9.573,0,0,0,1.969,4.259,84.977,84.977,0,0,0,18.572,19.288c-.416-2.133,1.065-4.125,2.46-5.8a18.615,18.615,0,0,1,4.563-4.376q-6.817-6.43-13.206-13.292a6.944,6.944,0,0,1-1.147-1.481c-1.027-1.984,0-4.353.9-6.4,2.823-6.521,4.155-13.918,2.344-20.791a11.88,11.88,0,0,0-4.046-6.749,3.3,3.3,0,0,0-3.285-.637,3.648,3.648,0,0,0-1.125,1.009C724.8,364.036,725.2,368.966,724.611,373.953Z" transform="translate(260.823 7.502)" fill="#586ba4"/>
    <g id="Group_24" data-name="Group 24" transform="translate(1032.146 285.444)" opacity="0.2">
      <path id="Path_174" data-name="Path 174" d="M1022.733,699.863a16.19,16.19,0,0,0,.656,2.493q8-2.576,16.149-4.874c-.034-.225-.064-.457-.1-.69a13.764,13.764,0,0,0-2.921-6.509c-1.984-2.373-4.668-3.641-7.36-3.142s-4.785,2.625-5.853,5.564a14.035,14.035,0,0,0-.566,7.158Z" transform="translate(-960.318 -483.157)" fill="#2b2b2b"/>
      <ellipse id="Ellipse_107" data-name="Ellipse 107" cx="8.489" cy="11.357" rx="8.489" ry="11.357" transform="translate(58.263 191.574) rotate(-8.99)" fill="#2b2b2b"/>
      <ellipse id="Ellipse_108" data-name="Ellipse 108" cx="8.489" cy="11.357" rx="8.489" ry="11.357" transform="translate(55.901 177.899) rotate(-8.99)" fill="#2b2b2b"/>
      <ellipse id="Ellipse_109" data-name="Ellipse 109" cx="8.489" cy="11.357" rx="8.489" ry="11.357" transform="translate(53.537 164.222) rotate(-8.99)" fill="#2b2b2b"/>
      <ellipse id="Ellipse_110" data-name="Ellipse 110" cx="8.489" cy="11.357" rx="8.489" ry="11.357" transform="translate(51.174 150.548) rotate(-8.99)" fill="#2b2b2b"/>
      <path id="Path_175" data-name="Path 175" d="M933.073,204.422a42.16,42.16,0,0,0,2.3-5.249l-22.576.352,23.757-4.188a42.392,42.392,0,0,0,.7-17.8,41.9,41.9,0,0,0-5.542-14.785L902.807,185.52l25.542-27.5A39.971,39.971,0,0,0,890.2,143.964c-22.085,4.068-36.828,25.7-32.925,48.306A41.538,41.538,0,0,0,870.2,216.008a42.51,42.51,0,0,0-3.27,8.305l31.091,9.891-32.167-4.841a42.557,42.557,0,0,0,.157,13.521,41.538,41.538,0,0,0,12.928,23.738,42.348,42.348,0,0,0-4.188,26.888c3.9,22.614,24.972,37.646,47.061,33.581s36.828-25.7,32.925-48.306a41.538,41.538,0,0,0-12.928-23.738,42.349,42.349,0,0,0,4.207-26.888,41.5,41.5,0,0,0-12.947-23.739Z" transform="translate(-856.649 -143.3)" fill="#ff6b6b"/>
      <path id="Path_176" data-name="Path 176" d="M881.62,406.781a41.538,41.538,0,0,0,12.929,23.738,42.348,42.348,0,0,0-4.188,26.888c3.9,22.614,24.972,37.646,47.061,33.581s36.828-25.7,32.925-48.306a41.538,41.538,0,0,0-12.929-23.738C961.576,410.992,880.829,402.188,881.62,406.781Z" transform="translate(-872.254 -307.197)" opacity="0.1"/>
    </g>
    <path id="Path_177" data-name="Path 177" d="M970.5,637.9c0,19.614,12.3,35.486,27.511,35.486" transform="translate(104.335 -167.003)" fill="#586ba4"/>
    <path id="Path_178" data-name="Path 178" d="M1043.87,672.723c0-19.835,13.731-35.883,30.7-35.883" transform="translate(58.476 -166.341)" fill="#ff6b6b"/>
    <path id="Path_179" data-name="Path 179" d="M997.08,642.65c0,18.628,7.848,33.7,17.544,33.7" transform="translate(87.722 -169.972)" fill="#ff6b6b"/>
    <path id="Path_180" data-name="Path 180" d="M1043.87,656.11c0-25.343,15.868-45.85,35.482-45.85" transform="translate(58.476 -149.727)" fill="#586ba4"/>
    <ellipse id="Ellipse_111" data-name="Ellipse 111" cx="7.004" cy="1.185" rx="7.004" ry="1.185" transform="translate(1092.162 509.045)" fill="#ff6b6b" opacity="0.1"/>
    <path id="Path_181" data-name="Path 181" d="M1022.85,724.532s3.993-.124,5.2-.982,6.146-1.875,6.445-.506,6,6.839,1.5,6.877-10.5-.7-11.68-1.436S1022.85,724.532,1022.85,724.532Z" transform="translate(71.614 -219.803)" fill="#a8a8a8"/>
    <path id="Path_182" data-name="Path 182" d="M1036.063,733.026c-4.5.037-10.476-.7-11.68-1.436-.915-.555-1.279-2.557-1.4-3.48h-.131s.251,3.221,1.455,3.952,7.169,1.47,11.68,1.436c1.3,0,1.751-.476,1.725-1.162C1037.53,732.759,1037.035,733.018,1036.063,733.026Z" transform="translate(71.614 -223.388)" opacity="0.2"/>
  </g>
</svg>
