<?xml version="1.0" standalone="no"?>
<!DOCTYPE svg PUBLIC "-//W3C//DTD SVG 20010904//EN"
 "http://www.w3.org/TR/2001/REC-SVG-20010904/DTD/svg10.dtd">
<svg version="1.0" xmlns="http://www.w3.org/2000/svg"
 width="200.000000pt" height="200.000000pt" viewBox="0 0 200.000000 200.000000"
 preserveAspectRatio="xMidYMid meet">
<metadata>
Created by potrace 1.11, written by Peter Selinger 2001-2013
</metadata>
<g transform="translate(0.000000,200.000000) scale(0.100000,-0.100000)"
fill="#000000" stroke="none">
<path d="M1463 1685 c-134 -66 -253 -284 -318 -578 -10 -43 -22 -80 -29 -83
-16 -6 -309 -24 -314 -19 -2 2 4 56 13 121 25 171 23 324 -5 396 -25 67 -84
124 -138 134 -140 27 -341 -65 -442 -201 -53 -70 -65 -113 -46 -159 12 -30 20
-36 44 -36 24 0 39 11 77 58 111 136 222 186 280 127 23 -22 25 -32 25 -117 0
-51 -7 -138 -15 -193 -23 -155 -17 -145 -78 -145 -110 0 -160 -31 -161 -100 0
-63 28 -85 110 -85 l65 0 -6 -35 c-3 -19 -24 -109 -46 -199 -51 -215 -51 -248
8 -279 61 -33 136 2 166 77 15 36 70 262 97 393 13 67 -1 61 180 78 69 6 137
13 151 16 l26 6 1 -109 c1 -186 43 -305 136 -390 103 -95 259 -107 386 -30 47
28 159 136 176 169 16 32 18 101 4 129 -19 35 -51 22 -115 -45 -71 -75 -131
-108 -194 -109 -68 -1 -105 23 -137 90 -26 52 -28 67 -32 203 l-4 147 88 44
c109 54 224 162 267 251 62 129 75 316 29 405 -47 90 -148 117 -249 68z m121
-131 c11 -11 16 -35 16 -82 -1 -162 -57 -271 -184 -356 -63 -42 -67 -37 -46
57 40 184 96 326 146 372 31 29 46 31 68 9z"/>
</g>
</svg>
